<svg width="88" height="88" viewBox="0 0 88 88" fill="none" xmlns="http://www.w3.org/2000/svg">
<path d="M51.909 65.692C52.1675 68.97 54.758 71.522 59.4055 71.83V74.25H61.468V71.8135C66.2805 71.478 69.091 68.904 69.091 65.175C69.091 61.776 66.946 60.027 63.096 59.125L61.468 58.74V52.14C63.536 52.3765 64.845 53.504 65.1585 55.066H68.7775C68.519 51.9035 65.8075 49.434 61.468 49.1645V46.75H59.4055V49.225C55.297 49.6265 52.503 52.096 52.503 55.594C52.503 58.685 54.582 60.654 58.0415 61.457L59.4055 61.7925V68.7885C57.2935 68.4695 55.891 67.3035 55.5775 65.692H51.909ZM59.389 58.245C57.3595 57.7775 56.2595 56.815 56.2595 55.374C56.2595 53.757 57.4475 52.547 59.4055 52.195V58.245H59.389ZM61.765 62.348C64.2345 62.92 65.3675 63.844 65.3675 65.4775C65.3675 67.342 63.954 68.618 61.468 68.8545V62.282L61.765 62.348Z" fill="#F5F1ED"/>
<path fill-rule="evenodd" clip-rule="evenodd" d="M60.5 82.5C66.3348 82.5 71.9305 80.1822 76.0564 76.0564C80.1822 71.9305 82.5 66.3348 82.5 60.5C82.5 54.6652 80.1822 49.0695 76.0564 44.9436C71.9305 40.8178 66.3348 38.5 60.5 38.5C54.6652 38.5 49.0695 40.8178 44.9436 44.9436C40.8178 49.0695 38.5 54.6652 38.5 60.5C38.5 66.3348 40.8178 71.9305 44.9436 76.0564C49.0695 80.1822 54.6652 82.5 60.5 82.5ZM88 60.5C88 67.7935 85.1027 74.7882 79.9454 79.9454C74.7882 85.1027 67.7935 88 60.5 88C53.2065 88 46.2118 85.1027 41.0546 79.9454C35.8973 74.7882 33 67.7935 33 60.5C33 53.2065 35.8973 46.2118 41.0546 41.0546C46.2118 35.8973 53.2065 33 60.5 33C67.7935 33 74.7882 35.8973 79.9454 41.0546C85.1027 46.2118 88 53.2065 88 60.5Z" fill="#FF9000"/>
<path d="M54.989 27.9565L55 27.5C54.9989 25.6057 54.5086 23.7439 53.5767 22.0947C52.6447 20.4456 51.3027 19.0651 49.6806 18.0868C48.0585 17.1086 46.2113 16.5659 44.3178 16.5111C42.4244 16.4564 40.5489 16.8916 38.873 17.7745C37.197 18.6574 35.7775 19.9581 34.7519 21.5506C33.7263 23.1432 33.1293 24.9736 33.0187 26.8646C32.9082 28.7557 33.2879 30.6432 34.121 32.3444C34.9541 34.0456 36.2124 35.5028 37.774 36.575C42.5282 32.055 48.5216 29.0544 54.989 27.9565Z" fill="#F5F1ED"/>
<path d="M5.5 0C4.04131 0 2.64236 0.579463 1.61091 1.61091C0.579463 2.64236 0 4.04131 0 5.5L0 49.5C0 50.9587 0.579463 52.3576 1.61091 53.3891C2.64236 54.4205 4.04131 55 5.5 55H27.9565C28.2792 53.1043 28.7522 51.271 29.3755 49.5H16.5C16.5 46.5826 15.3411 43.7847 13.2782 41.7218C11.2153 39.6589 8.41738 38.5 5.5 38.5V16.5C8.41738 16.5 11.2153 15.3411 13.2782 13.2782C15.3411 11.2153 16.5 8.41738 16.5 5.5H71.5C71.5 8.41738 72.6589 11.2153 74.7218 13.2782C76.7847 15.3411 79.5826 16.5 82.5 16.5V35.904C84.59 37.774 86.4435 39.908 88 42.251V5.5C88 4.04131 87.4205 2.64236 86.3891 1.61091C85.3576 0.579463 83.9587 0 82.5 0L5.5 0Z" fill="#FF9000"/>
</svg>
