<svg width="88" height="88" viewBox="0 0 88 88" fill="none" xmlns="http://www.w3.org/2000/svg">
<path d="M81.0275 32.5922C82.4546 28.7378 82.8667 25.0623 81.8415 21.7638C81.3692 21.8063 80.8794 21.8283 80.3778 21.8283C65.3562 21.8283 38.8067 2.94213 36.7973 0C28.518 12.0604 11.1645 21.3326 3.32077 31.7312C0.14691 35.9391 -1.44002 39.0704 1.71771 43.884L34.7895 86.3776C36.2811 88.3972 39.2041 88.5615 41.2853 86.6988C41.2853 86.6988 68.4069 51.8964 88 41.1282C86.5275 38.252 84.0767 35.3818 81.0275 32.5922ZM34.2131 77.3723L34.0752 77.4677L33.9506 77.5762C33.445 78.0296 32.9959 78.5422 32.613 79.103L3.9573 42.2854C1.89371 39.0924 2.4789 37.4116 5.51636 33.3871C8.96155 28.8214 14.4674 24.3891 20.2974 19.6973C26.3576 14.8192 32.5998 9.79731 37.1845 4.08319C44.7525 10.3106 65.9209 24.0606 79.618 24.5637C81.2607 40.6926 47.8178 67.883 34.2131 77.3723Z" fill="#FF9000"/>
<path d="M26.3884 17.8317L63.3557 46.7983L64.6727 45.6191L27.3506 16.9693L26.3884 17.8317ZM38.4356 33.2507L23.3055 20.5905C23.3055 20.5905 18.0402 23.9521 11.6631 31.325L25.086 45.2025L38.4356 33.2507ZM5.28756 38.2212L33.8405 73.2173L39.1132 68.499L8.67115 33.6936C8.67115 33.6936 6.01796 35.1295 5.28756 38.2212ZM37.2813 40.2276L53.8678 55.2902L59.1375 50.572L41.8676 36.1224L37.2813 40.2276ZM28.1088 48.4395L43.3284 64.7253L48.5966 60.0085L32.6951 44.3343L28.1088 48.4395ZM37.9223 12.8421L35.6856 19.1223L37.0877 20.1431L44.2084 13.7676L42.8151 12.8905L37.9091 17.2831L40.0783 11.1613L38.6233 10.2432L31.8371 16.3181L33.053 17.2025L37.9223 12.8421ZM44.0163 25.1958L45.3744 23.977L41.2311 21.0319L43.1099 19.3511L46.7897 21.8709L48.0965 20.699L44.3756 18.2145L45.9273 16.827L50.0472 19.4919L51.3848 18.2966L45.6883 14.7004L38.4752 21.1581L44.0163 25.1958ZM48.4294 28.4107L54.06 25.0007L55.9036 23.8333L54.6804 25.4143L51.0577 30.3291L52.8074 31.6036L63.6431 26.0318L61.5869 24.7338L55.6454 28.1335L54.1289 29.0516L55.1468 27.7126L58.6682 22.8917L56.6912 21.645L51.1985 25.0491L49.7392 25.9717L50.7438 24.6942L54.0702 19.9906L52.2164 18.8202L46.8469 27.2579L48.4294 28.4107ZM68.7955 28.9006C67.4623 28.0631 66.2171 27.6627 65.0526 27.6862C63.8969 27.7111 62.9494 28.0587 62.2029 28.7275C61.383 29.4608 61.1073 30.222 61.3771 31.0111C61.5355 31.4848 62.0401 32.1698 62.901 33.0762L63.7913 34.0119C64.3222 34.5634 64.6639 35.0151 64.8135 35.3612C64.9602 35.7118 64.8883 36.0183 64.5994 36.2764C64.1051 36.7179 63.4613 36.8015 62.6707 36.5316C62.1792 36.3452 61.7161 36.091 61.295 35.7763C60.459 35.1808 60.0527 34.6074 60.063 34.0544C60.0689 33.7523 60.2346 33.4062 60.5587 33.016L58.636 31.6755C57.7692 32.4514 57.4406 33.3167 57.6577 34.2774C57.8762 35.2468 58.6198 36.2031 59.9105 37.1447C61.1967 38.0878 62.4771 38.5923 63.7355 38.648C65.0071 38.7023 66.0543 38.3679 66.861 37.6419C67.653 36.935 67.9346 36.1752 67.7087 35.3671C67.565 34.8494 67.1617 34.2466 66.5105 33.5602L65.0511 32.0202C64.4953 31.4394 64.1638 31.036 64.0509 30.8058C63.8749 30.4552 63.9379 30.1458 64.2415 29.8759C64.5715 29.5796 64.9939 29.4594 65.5102 29.5107C66.0338 29.562 66.5794 29.7718 67.1499 30.1384C67.6677 30.4728 68.0329 30.819 68.2367 31.1768C68.5521 31.7166 68.4641 32.2372 67.9801 32.7315L70.1463 34.1586C71.0468 33.2903 71.3284 32.3707 70.9926 31.4042C70.6641 30.4464 69.9293 29.6104 68.7955 28.9006Z" fill="#F5F1ED"/>
</svg>
