<svg width="88" height="88" viewBox="0 0 88 88" fill="none" xmlns="http://www.w3.org/2000/svg">
<path d="M69.4463 29.9623C58.2998 24.6411 42.2914 21.2605 27.229 22.5188C27.9843 17.3644 29.8469 13.7715 32.9049 13.0135C37.1142 11.9713 41.7048 14.8327 46.0827 20.0401C48.95 20.4267 52.3526 21.1013 54.7176 21.666C46.739 6.14992 36.0362 -2.54804 27.8926 0.662054C21.7034 3.10279 18.5318 11.9182 18.9168 23.7581C10.8502 25.5318 4.56202 28.685 0.53608 33.2141C0.33075 33.4604 -0.127576 34.0744 0.0337544 34.37C0.158419 34.5898 0.569079 34.3397 0.745076 34.2184C5.41634 30.8453 11.3929 29.0148 19.1771 27.8664C20.2881 40.4984 25.458 56.5185 34.0452 69.3741C29.352 71.2766 25.4067 71.4055 23.2434 69.0444C20.2661 65.8001 20.3688 60.2592 22.5467 53.7329C21.4376 50.9324 20.4503 48.0821 19.5878 45.1903C10.5716 60.1 8.63928 74.032 15.3968 79.7169C20.5374 84.0375 29.5023 82.4646 39.2371 76.2074C44.7554 82.5442 50.5413 86.5919 56.3492 87.9335C56.6572 87.9904 57.4015 88.0965 57.5665 87.8047C57.6912 87.5773 57.2732 87.3347 57.0862 87.24C51.9236 84.75 47.4063 80.3119 42.5517 73.9183C52.5799 66.6074 63.4184 53.9717 69.8936 39.8541C73.8389 43.1134 75.9069 46.5737 75.0196 49.689C73.7876 53.9755 69.098 56.6625 62.5421 57.9701C60.7475 60.3604 58.8538 62.6694 56.8662 64.8906C73.8573 65.4969 86.4924 60.2668 87.8784 51.3793C88.927 44.6105 83.1301 37.3716 73.0176 31.7852C75.5695 23.6785 76.0682 16.4738 74.2862 10.6069C74.1799 10.3037 73.8976 9.58363 73.5676 9.58363C73.3183 9.58363 73.3219 10.0763 73.3366 10.2924C73.8316 16.1554 72.3723 22.4202 69.4426 29.9623H69.4463ZM38.1591 67.3654C30.9726 55.446 26.8293 41.4079 26.8587 27.2145C40.4324 26.7446 54.2629 30.0494 66.1427 37.1708C59.7518 49.5602 50.0646 60.2895 38.1555 67.3616L38.1591 67.3654Z" fill="#FF9000"/>
</svg>
