<svg width="71" height="88" viewBox="0 0 71 88" fill="none" xmlns="http://www.w3.org/2000/svg">
<path d="M6.39582 0C1.71577 0 0 1.86166 0 6.88842V67.6138C0 68.1885 0.0280853 68.7165 0.0689369 69.2059C0.188938 70.3086 0.188938 71.3838 1.14384 72.5855C1.23576 72.7285 2.19577 73.4875 2.19577 73.4875C2.71408 73.7597 3.07153 73.9605 3.65621 74.2162L32.0353 87.0196C33.4983 87.7373 34.1264 88.0398 35.1885 87.9958H35.2013C36.2762 88.0398 36.9043 87.7401 38.3673 87.0196L66.731 74.2162C67.331 73.9605 67.6732 73.757 68.2042 73.4875C68.2042 73.4875 69.1642 72.6983 69.2562 72.5855C70.2136 71.3838 70.2136 70.3086 70.3311 69.2059C70.3719 68.7192 70.4 68.1912 70.4 67.6303V6.89117C70.4 1.86441 68.6715 0.00274987 64.0042 0.00274987L6.39582 0ZM51.8636 11.3982H54.1743C58.0322 11.3982 59.9216 13.4194 59.9216 17.6322V24.5206H55.2415V17.9016C55.2415 16.557 54.6696 15.941 53.4568 15.941H52.6602C51.4117 15.941 50.8398 16.557 50.8398 17.9016V39.2104C50.8398 40.5551 51.4117 41.171 52.6602 41.171H53.5513C54.7462 41.171 55.3181 40.5551 55.3181 39.2104V31.5905H59.9982V39.4551C59.9982 43.6487 58.0858 45.7138 54.2151 45.7138H51.8636C47.9802 45.7138 46.0755 43.6349 46.0755 39.4551V17.6679C46.0755 13.4744 47.9776 11.3982 51.8636 11.3982ZM10.3712 11.6897H20.9696V16.3727H15.1304V25.9093H20.7577V30.5813H15.1304V40.7476H21.0513V45.4333H10.3712V11.6897ZM23.362 11.6897H30.8378C34.706 11.6897 36.6209 13.7658 36.6209 17.9594V26.9267C36.6209 31.1203 34.7034 33.1854 30.8378 33.1854H28.1391V45.4306H23.362V11.6897ZM38.7758 11.6897H43.535V45.4333H38.7758V11.6897ZM28.1237 16.227V28.6564H30.0923C31.2897 28.6564 31.8617 28.0294 31.8617 26.6792V18.2014C31.8617 16.8567 31.2897 16.2242 30.0923 16.2242L28.1237 16.227ZM14.9976 53.4492H15.7023L15.8632 53.4794H16.1185L16.2513 53.5234H16.384L16.504 53.5647L16.6368 53.5949L16.7415 53.6252L16.9789 53.6829L17.1143 53.7242L17.2062 53.7544L17.3109 53.7984L17.4436 53.8424L17.5355 53.8837L17.6709 53.9414L17.7909 53.9992L17.8955 54.0679L18.0155 54.1257L18.1075 54.1944L18.2428 54.2687L18.3475 54.3374L18.4521 54.3952L18.5568 54.4804L18.6666 54.5546L18.7585 54.6399L19.0777 54.9011L18.996 55.0139L18.9041 55.1129L18.8224 55.2146L18.7304 55.3274L18.6666 55.4264L18.5849 55.5281L18.493 55.6271L18.4113 55.7398L18.3475 55.8388L18.253 55.9571L18.1738 56.0561L18.0819 56.1688L18.0002 56.2706L17.9364 56.3833L17.8419 56.4823L17.7628 56.6005L17.6709 56.6995L17.5891 56.7985L17.4972 56.7298L17.3926 56.628L17.2828 56.5593L17.0862 56.4163L16.9662 56.3421L16.8564 56.2733L16.7364 56.1991L16.6445 56.1413L16.5398 56.0863L16.3253 55.9983L16.1925 55.9736L16.0879 55.9433L15.9679 55.9131L15.8325 55.8828L15.6998 55.8691H15.567L15.4113 55.8388H15.1559L15.0232 55.8526H14.8904L14.7576 55.8966L14.6529 55.9268L14.5329 55.9708L14.4129 55.9956L14.3032 56.0533L14.1704 56.1111L13.9866 56.2541L13.8768 56.3228L13.7848 56.4108L13.6929 56.4795L13.5985 56.5675L13.5346 56.6665L13.4248 56.7655L13.2921 56.9663L13.2282 57.079L13.1746 57.2083L13.1108 57.31L13.0419 57.4393L13.001 57.5685L12.9499 57.6812L12.9091 57.8242L12.8963 57.9672L12.858 58.0992L12.8299 58.2422V58.3852L12.8172 58.5282V58.8582L12.8299 59.0012V59.1139L12.8427 59.2569L12.8657 59.3862L12.9065 59.4989L12.9193 59.6447L12.9602 59.7574L12.9985 59.8564L13.0521 59.9994L13.121 60.1424L13.1721 60.2441L13.3048 60.4724L13.3865 60.5851L13.4504 60.6869L13.5602 60.7721L13.624 60.8711L13.7159 60.9591L13.9304 61.1323L14.0223 61.1873L14.127 61.2616L14.2495 61.3193L14.3823 61.3743L14.4742 61.4321L14.7398 61.5173L14.8598 61.5311L14.9925 61.5751L15.1253 61.5888H15.6972L15.8581 61.5751H15.9781L16.1134 61.5173L16.2462 61.5036L16.3789 61.4623L16.4836 61.4321L16.6036 61.3743L16.7083 61.3193L16.8283 61.2616L16.91 61.2038L17.0147 61.1351V59.8591H15.1381V57.8132H19.379V62.3973L19.287 62.466L19.1951 62.5513L19.1007 62.6255L18.996 62.7108L18.8913 62.7685L18.7994 62.8565L18.5849 62.9995L18.4521 63.0682L18.2402 63.2112L18.1049 63.269L18.0002 63.324L17.8802 63.3817L17.6147 63.4945L17.51 63.5522L17.2674 63.6375L17.1474 63.6677L17.0274 63.7117L16.8947 63.7557L16.79 63.7805L16.3917 63.8685L16.2691 63.8822L16.0036 63.9124L15.8581 63.9262L15.7253 63.9372L15.5798 63.9509H14.9159L14.7832 63.9262H14.6504L14.5176 63.8959H14.3976L14.2649 63.8519L13.8768 63.7667L13.7721 63.7227L13.6521 63.709L13.5193 63.6512L13.2768 63.566L13.0393 63.4532L12.9065 63.3955L12.8146 63.3377L12.6819 63.2827L12.5874 63.1947L12.4546 63.1397L12.3755 63.0655L12.2708 62.9967L12.0563 62.8235L11.9516 62.7493L11.8699 62.664L11.7652 62.576L11.5916 62.3918L11.4997 62.3038L11.4206 62.2048L11.3261 62.103L11.2623 61.9903L11.1806 61.905L11.1167 61.7868L11.035 61.6741L10.9712 61.5751L10.9023 61.4623L10.8384 61.3303L10.7848 61.2176L10.7312 61.0883L10.6801 60.9756L10.5754 60.7144L10.5346 60.6154L10.481 60.4861L10.4529 60.3569L10.4299 60.2441L10.4018 60.1011L10.361 59.9691L10.3329 59.8261L10.3201 59.7134L10.2971 59.5704L10.2691 59.3147L10.241 59.0287V58.2697L10.2691 58.124V57.981L10.3099 57.838V57.695L10.3482 57.5658L10.3891 57.4228L10.4427 57.167L10.481 57.024L10.5218 56.8948L10.6827 56.507L10.7337 56.3943L10.7874 56.2651L10.8563 56.1331L10.9074 56.0203L10.9763 55.9213L11.1091 55.6903L11.1882 55.5776L11.2699 55.4786L11.3338 55.3659L11.5074 55.1789L11.5865 55.0771L11.681 54.9781L11.7601 54.8791L11.8699 54.7911L12.0538 54.6179L12.1584 54.5326L12.2682 54.4584L12.3601 54.3732L12.4648 54.2989L12.5746 54.2439L12.6946 54.1697L12.8274 54.1009L12.9193 54.0267L13.0521 53.9717L13.1721 53.9139L13.2921 53.8452L13.4019 53.8149L13.5346 53.7709L13.6393 53.7132L13.7593 53.6884L13.8793 53.6444L14.0121 53.6142L14.1219 53.5702L14.2546 53.5399H14.3874L14.5074 53.4987H14.6402L14.7729 53.4684H14.8929L14.9976 53.4492ZM55.8109 53.4794H56.5156L56.6764 53.5097H56.9292L57.062 53.5509H57.2075L57.3403 53.5949L57.5777 53.6527L57.7105 53.6829L57.8305 53.7077L57.9658 53.7517L58.0858 53.7957L58.1905 53.8259L58.3105 53.8672L58.4433 53.9112L58.5479 53.9689L58.6807 54.0239L58.8033 54.0817L58.9233 54.1559L59.0152 54.2109L59.1352 54.2852L59.2552 54.3402L59.365 54.4144L59.485 54.4996L59.5769 54.5739L59.7914 54.7471L59.896 54.8159L59.8143 54.9286L59.7505 55.0469L59.6714 55.1459L59.5897 55.2586L59.5258 55.3879L59.4569 55.5061L59.3777 55.6051L59.296 55.7178L59.2322 55.8361L59.1505 55.9488L59.0867 56.0478L59.005 56.1606L58.9411 56.2926L58.8594 56.4053L58.7803 56.5043L58.6986 56.617L58.6348 56.7353L58.5301 56.6473L58.4075 56.5785L58.3156 56.5043L58.2109 56.4356L58.0909 56.3778L57.9811 56.3036L57.8611 56.2486L57.7692 56.1908L57.6364 56.1358L57.542 56.0781L57.4373 56.0341L57.1998 55.9488L56.9343 55.8608L56.536 55.7756L56.4032 55.7618L56.1607 55.7316H55.8824L55.7368 55.7618L55.6041 55.7921L55.4841 55.8223L55.3794 55.8773L55.2849 55.9351L55.1802 56.0341L55.1011 56.1633L55.0475 56.2953V56.6363L55.1164 56.793L55.1675 56.881L55.2492 56.9663L55.3819 57.0405L55.4866 57.1093L55.6066 57.167L55.7394 57.222L55.913 57.266L56.0049 57.31L56.1147 57.3403L56.2475 57.3705L56.3522 57.4118L56.4722 57.442L56.6177 57.486L56.7505 57.53L56.896 57.5713L57.0415 57.6015L57.1615 57.6455L57.3071 57.6867L57.4398 57.717L57.5598 57.7472L57.9607 57.8765L58.0654 57.9205L58.1981 57.9645L58.3182 58.0195L58.4509 58.0937L58.7165 58.2065L58.8365 58.2807L59.0509 58.4237L59.2475 58.5805L59.3701 58.6657L59.462 58.7647L59.5539 58.8829L59.6484 58.9819L59.7122 59.0809L59.8067 59.2239L59.8705 59.3257L59.9241 59.4687L59.9752 59.5539L60.016 59.6969L60.0569 59.8151L60.085 59.9444L60.136 60.2304L60.1488 60.3734L60.1616 60.5026V60.8463L60.1488 61.0031L60.1207 61.2891L60.0926 61.4321L60.0543 61.5613L60.0263 61.7043L59.9854 61.8473L59.9471 61.9765L59.8935 62.0783L59.8399 62.2075L59.776 62.3203L59.6943 62.422L59.5616 62.6503L59.4007 62.851L59.3088 62.9197L59.2041 63.0215L59.1224 63.1067L59.0177 63.192L58.9131 63.2497L58.8084 63.3377L58.6858 63.4065L58.4484 63.5357L58.3156 63.5935L58.1956 63.6485L58.0628 63.6925L57.9428 63.7365L57.833 63.7667L57.5675 63.8217L57.4756 63.8519L57.3428 63.8822H57.2101L57.09 63.9124H56.9573L56.8245 63.9427H55.8773L55.479 63.8987L55.3462 63.8685L55.2262 63.8547L54.9607 63.7997L54.8151 63.7695L54.6951 63.7392L54.5624 63.6952L54.427 63.665L54.307 63.6237L54.1743 63.5797L54.0415 63.522L53.9368 63.4807L53.8041 63.4367L53.6713 63.379L53.5768 63.324L53.444 63.28L53.3394 63.2057L53.2066 63.1507L53.1019 63.0765L53.0075 63.0077L52.8747 62.9335L52.7828 62.8785L52.6781 62.7905L52.5734 62.7218L52.4636 62.6338L52.3717 62.5485L52.267 62.4605L52.1725 62.3918L52.0679 62.29L52.1496 62.1773L52.2415 62.0783L52.3206 61.9765L52.4151 61.8638L52.4789 61.7648L52.5606 61.6521L52.6526 61.5503L52.7317 61.4513L52.8262 61.3386L52.89 61.2368L52.9845 61.1378L53.0636 61.0251L53.1453 60.9233L53.2372 60.8106L53.3011 60.7116L53.3955 60.6099L53.4875 60.4971L53.5794 60.5851L53.7019 60.6703L53.7938 60.7556L53.9266 60.8298L54.0185 60.9041L54.1385 60.9893L54.2483 61.0636L54.3683 61.1186L54.4602 61.1928L54.5802 61.2341L54.713 61.2918L54.8228 61.3496L54.9428 61.3908L55.0475 61.4486L55.1802 61.4926L55.3002 61.5338L55.433 61.5778L55.5658 61.5916L55.6883 61.6356L55.8211 61.6493H55.9666L56.0866 61.6906H56.8041L56.9241 61.6658L57.0569 61.6356L57.1488 61.6218L57.2586 61.5778L57.3505 61.5228L57.4705 61.4348L57.5394 61.3358L57.5905 61.2231L57.6313 61.0911V60.7611L57.5777 60.6319L57.5139 60.5191L57.4322 60.4339L57.3122 60.3459L57.2203 60.3046L57.1003 60.2469L56.9675 60.1891L56.822 60.1204L56.7275 60.0901L56.6228 60.0599L56.49 60.0159L56.3981 59.9911L56.2654 59.9471L56.1326 59.9334L55.9973 59.8756L55.8645 59.8619L55.719 59.8206L55.599 59.7904L55.4662 59.7464L55.3334 59.7161L55.2007 59.6749L55.0807 59.6309L54.9479 59.6007L54.8432 59.5567L54.6007 59.4714L54.4679 59.4137L54.3351 59.3724L54.0696 59.2542L53.9496 59.1854L53.8168 59.1112L53.7249 59.0424L53.6023 58.9682L53.5104 58.8994L53.3904 58.8252L53.2168 58.6382L53.1249 58.553L52.964 58.3522L52.8951 58.2532L52.844 58.1542L52.7623 58.0222L52.724 57.9232L52.6015 57.5795L52.5785 57.4365L52.5504 57.3073V57.178L52.5223 57.035V56.4493L52.5504 56.1633L52.5785 56.0451L52.6015 55.9158L52.6423 55.8031L52.6704 55.6601L52.724 55.5611L52.7751 55.4154L52.8287 55.3026L52.8798 55.1596L52.9487 55.0606L53.0406 54.9479L53.1096 54.8296L53.2143 54.7306L53.2934 54.6316L53.3751 54.5134L53.4951 54.4144L53.5768 54.3402L53.6815 54.2549L53.8934 54.1119L54.0134 54.0377L54.256 53.9084L54.3607 53.8672L54.4807 53.8232L54.6134 53.7654L54.7462 53.7242L54.8407 53.6939L54.9607 53.6637L55.0653 53.6334L55.1853 53.6032L55.3181 53.5729L55.5836 53.5482L55.7062 53.5344L55.8109 53.4794ZM24.3603 53.5784H26.768L26.8778 53.8397L26.9288 53.9524L26.9697 54.0954L27.0233 54.2247L27.0616 54.3374L27.1305 54.4666L27.2097 54.7279L27.2786 54.8571L27.3833 55.1129L27.4114 55.2256L27.6233 55.7426L27.6642 55.8718L27.7178 55.9901L27.7816 56.1193L27.8097 56.2486L27.8786 56.3916L27.9016 56.5208L28.0242 56.7765L28.0752 56.8783L28.1289 57.0213L28.1697 57.1643L28.208 57.2633L28.2769 57.4063L28.3178 57.5245L28.3689 57.6675L28.4097 57.7665L28.4633 57.9095L28.5833 58.1652L28.6216 58.2945L28.6497 58.4265L28.7033 58.5557L28.7672 58.6684L28.8208 58.8114L28.8744 58.9407L28.9127 59.0534L29.0225 59.3147L29.0608 59.4439L29.1144 59.5732L29.1552 59.7024L29.2063 59.8151L29.2752 59.9471L29.3263 60.0764L29.3799 60.1891L29.408 60.3321L29.5127 60.5879L29.5663 60.7061L29.6046 60.8353L29.7144 61.0911L29.7782 61.2341L29.8063 61.3468L29.8753 61.4926L29.8982 61.5916L29.9519 61.7346L30.0208 61.8775L30.0719 61.9765L30.1127 62.1195L30.1663 62.2378L30.2046 62.3808L30.2736 62.4798L30.3527 62.7658L30.4063 62.8675L30.4574 63.0105L30.5263 63.1232L30.5799 63.2662L30.6029 63.3955L30.6438 63.5082L30.6974 63.6375L30.7612 63.7557H28.1033L28.0395 63.6375L27.9986 63.5082L27.945 63.379L27.894 63.236L27.8659 63.1232L27.7561 62.8675L27.7178 62.7493L27.6131 62.4935L27.5722 62.3808L27.5186 62.2378L27.4395 61.9765L27.3859 61.8638H23.6888L23.6377 61.993L23.5969 62.1113L23.5433 62.2543L23.4922 62.3835L23.4641 62.4963L23.4105 62.6393L23.3594 62.752L23.3186 62.8812L23.265 62.9995L23.2139 63.1425L23.173 63.2415L23.1194 63.3845L23.0811 63.5275L23.0275 63.6292L22.9867 63.7722H20.3543L20.3926 63.6402L20.5024 63.3845L20.5407 63.2415L20.5815 63.1287L20.6505 62.9995L20.7015 62.8703L20.7551 62.752L20.7832 62.6228L20.8343 62.4798L20.9032 62.367L20.9543 62.2378L21.036 61.9765L21.156 61.7208L21.1969 61.5916L21.2479 61.4788L21.2888 61.3468L21.4496 60.9618L21.5032 60.8188L21.5415 60.7061L21.5824 60.5769L21.6513 60.4586L21.7024 60.3156L21.7432 60.1864L21.7841 60.0736L21.8352 59.9306L21.9041 59.8289L21.9449 59.6859L21.996 59.5732L22.0369 59.4439L22.0905 59.3009L22.1543 59.1882L22.1952 59.0452L22.2462 58.9434L22.2871 58.8004L22.3407 58.6574L22.3918 58.5585L22.4454 58.4155L22.4862 58.2972L22.5373 58.1542L22.5781 58.0552L22.6471 57.9122L22.6981 57.7692L22.7518 57.6565L22.7799 57.5273L22.8309 57.3953L22.8999 57.266L22.9509 57.1533L22.979 57.0103L23.0326 56.881L23.0862 56.7628L23.1909 56.507L23.2292 56.3943L23.339 56.1083L23.3901 56.0066L23.4437 55.8636L23.4845 55.7508L23.5228 55.6078L23.5765 55.4786L23.6454 55.3659L23.6965 55.2229L23.7373 55.1211L23.7782 54.9781L23.8292 54.8654L23.8982 54.7361L23.939 54.5931L23.9773 54.4749L24.0309 54.3319L24.082 54.2329L24.1509 54.0899L24.1918 53.9469L24.2301 53.8479L24.2837 53.7049L24.3603 53.5784ZM31.8361 53.6527H34.4685L34.5502 53.7654L34.683 53.9964L34.7468 54.1257L34.8157 54.2247L34.8796 54.3539L34.9485 54.4666L35.0123 54.5986L35.0813 54.7114L35.1451 54.8104L35.214 54.9396L35.2779 55.0579L35.3723 55.1706L35.4106 55.2834L35.4923 55.4126L35.5562 55.5308L35.6379 55.6298L35.6915 55.7591L35.7553 55.8718L35.837 55.9901L35.8753 56.1028L35.9698 56.2321L36.1664 56.5758L36.22 56.6885L36.2992 56.8013L36.3681 56.914L36.4319 57.046L36.6336 57.387L36.6975 57.519L36.7664 57.6317L36.8456 57.519L36.8992 57.3733L36.9783 57.2743L37.0473 57.145L37.1111 57.046L37.1647 56.903L37.2566 56.8013L37.3256 56.672L37.3792 56.573L37.443 56.4548L37.5247 56.3256L37.5885 56.2266L37.6575 56.0836L37.7213 55.9846L37.803 55.8526L37.8541 55.7536L37.923 55.6106L37.9868 55.5253L38.0558 55.4071L38.1349 55.2641L38.2039 55.1651L38.2549 55.0359L38.3366 54.9341L38.4005 54.7911L38.4694 54.7059L38.5486 54.5931L38.6175 54.4501L38.6813 54.3484L38.7503 54.2192L38.8141 54.1202L38.883 53.9772L38.9622 53.8754L39.0158 53.7462L39.0847 53.6472H41.7579V63.874H39.2558V57.8572L39.192 57.959L39.1103 58.102L39.0464 58.1872L38.9647 58.3L38.9137 58.443L38.832 58.5447L38.7681 58.6437L38.6864 58.7867L38.5537 58.9874L38.4745 59.1002L38.4056 59.2432L38.3264 59.3449L38.2575 59.4439L38.2064 59.5869L38.1247 59.6859L38.0609 59.7876L37.9792 59.9306L37.9154 60.0296L37.8336 60.1424L37.7698 60.2716L37.7162 60.3734L37.6371 60.4861L37.5681 60.6154L37.489 60.7144L37.4073 60.8326L37.3562 60.9453L37.2873 61.0746L37.2081 61.1763L37.1264 61.2891L37.0753 61.4321L36.9809 61.5173L36.9298 61.6301L36.8481 61.7758L36.7843 61.8748H36.7307L36.6515 61.7456L36.5826 61.6273L36.5187 61.4981L36.4498 61.3991L36.3707 61.2698L36.3017 61.1571L36.2226 61.0388L36.1536 60.9261L36.0898 60.7968L36.0209 60.6978L35.9289 60.5659L35.8753 60.4531L35.7962 60.3239L35.7272 60.2249L35.6634 60.0956L35.5817 59.9774L35.5179 59.8344L35.4362 59.7354L35.3723 59.6062L35.3034 59.4879L35.2396 59.3587L35.1579 59.2597L35.094 59.1304L35.0123 59.0177L34.9613 58.8994L34.8796 58.7867L34.8157 58.6574L34.734 58.5585L34.6702 58.4265L34.5885 58.3137L34.5374 58.1845L34.443 58.0855L34.3919 57.9535L34.3102 57.8407V63.8712H31.8514V53.7434L31.8361 53.6527ZM43.6422 53.6527H51.1308V55.9598H46.1291V57.607H50.6227V59.7849H46.1291V61.5311H51.1947V63.8519H43.655V53.7407L43.6422 53.6527ZM25.5297 56.7875L25.4888 56.9168L25.4505 57.035L25.3969 57.178L25.3433 57.3073L25.305 57.4365L25.1952 57.6922L25.1441 57.8352L25.1033 57.9535L25.0624 58.0965L25.0114 58.1955L24.9705 58.3385L24.9169 58.4815L24.8658 58.5832L24.825 58.7262L24.7739 58.8389L24.7331 58.9819L24.6641 59.1112L24.636 59.2239L24.585 59.3669L24.5314 59.4989L24.4905 59.6117L24.4394 59.7546H26.6327L26.5816 59.6117L26.5407 59.4824L26.4361 59.2212L26.3952 59.0919L26.3416 58.9792L26.3033 58.8362L26.2497 58.7069L26.2088 58.5777L26.1578 58.4595L26.1169 58.3302L26.0633 58.1872L26.025 58.0745L25.9152 57.8187L25.8922 57.6867L25.8386 57.5575L25.785 57.4145L25.7467 57.3155L25.6369 57.0295L25.5986 56.9003L25.5297 56.7875ZM21.6232 75.9376H48.8942L34.974 80.8791L21.6232 75.9376Z" fill="#F5F1ED"/>
</svg>
