<svg width="88" height="88" viewBox="0 0 88 88" fill="none" xmlns="http://www.w3.org/2000/svg">
<path d="M38.258 30.5228V36.5816H33.8228V43.9868H38.258V66H47.3748V43.9868H53.4908C53.4908 43.9868 54.0672 40.436 54.3444 36.5508H47.41V31.4908C47.41 30.7296 48.4044 29.7132 49.39 29.7132H54.3532V22H47.5992C38.0336 22 38.258 29.414 38.258 30.5228Z" fill="#FF9000"/>
<path d="M17.6 8.8C15.2661 8.8 13.0278 9.72714 11.3775 11.3775C9.72714 13.0278 8.8 15.2661 8.8 17.6V70.4C8.8 72.7339 9.72714 74.9722 11.3775 76.6225C13.0278 78.2729 15.2661 79.2 17.6 79.2H70.4C72.7339 79.2 74.9722 78.2729 76.6225 76.6225C78.2729 74.9722 79.2 72.7339 79.2 70.4V17.6C79.2 15.2661 78.2729 13.0278 76.6225 11.3775C74.9722 9.72714 72.7339 8.8 70.4 8.8H17.6ZM17.6 0H70.4C75.0678 0 79.5444 1.85428 82.8451 5.15492C86.1457 8.45556 88 12.9322 88 17.6V70.4C88 75.0678 86.1457 79.5444 82.8451 82.8451C79.5444 86.1457 75.0678 88 70.4 88H17.6C12.9322 88 8.45556 86.1457 5.15492 82.8451C1.85428 79.5444 0 75.0678 0 70.4V17.6C0 12.9322 1.85428 8.45556 5.15492 5.15492C8.45556 1.85428 12.9322 0 17.6 0Z" fill="#F5F1ED"/>
</svg>
