<svg width="88" height="88" viewBox="0 0 88 88" fill="none" xmlns="http://www.w3.org/2000/svg">
<path d="M61.7829 0H26.2127C19.2624 0.0081678 12.5992 2.77308 7.68498 7.68809C2.77079 12.6031 0.00699919 19.2668 0 26.2171L0 61.7873C0.0081678 68.7376 2.77308 75.4008 7.68809 80.315C12.6031 85.2292 19.2668 87.993 26.2171 88H61.7873C68.7376 87.9918 75.4008 85.2269 80.315 80.3119C85.2292 75.3969 87.993 68.7332 88 61.7829V26.2127C87.9918 19.2624 85.2269 12.5992 80.3119 7.68498C75.3969 2.77079 68.7332 0.00699919 61.7829 0ZM79.1493 61.7829C79.1493 64.0635 78.7001 66.3218 77.8274 68.4287C76.9546 70.5357 75.6754 72.4502 74.0628 74.0628C72.4502 75.6754 70.5357 76.9546 68.4287 77.8274C66.3218 78.7001 64.0635 79.1493 61.7829 79.1493H26.2127C21.6076 79.1481 17.1915 77.318 13.9356 74.0612C10.6798 70.8046 8.85069 66.388 8.85069 61.7829V26.2127C8.85186 21.6076 10.682 17.1915 13.9387 13.9356C17.1954 10.6798 21.612 8.85069 26.2171 8.85069H61.7873C66.3924 8.85186 70.8085 10.682 74.0644 13.9387C77.3202 17.1954 79.1493 21.612 79.1493 26.2171V61.7829Z" fill="#F5F1ED"/>
<path d="M43.9978 21.2408C37.9655 21.2501 32.1831 23.6508 27.918 27.9167C23.653 32.1826 21.2533 37.9655 21.2452 43.9978C21.2522 50.0316 23.6519 55.8163 27.918 60.0833C32.1841 64.3502 37.9684 66.7511 44.0022 66.7592C50.0368 66.7522 55.8222 64.3519 60.0892 60.0848C64.3563 55.8177 66.7566 50.0324 66.7636 43.9978C66.7543 37.964 64.3523 32.1802 60.0846 27.9149C55.8168 23.6496 50.0316 21.251 43.9978 21.2452V21.2408ZM43.9978 57.9085C40.3096 57.9085 36.7725 56.4434 34.1645 53.8355C31.5566 51.2275 30.0915 47.6904 30.0915 44.0022C30.0915 40.314 31.5566 36.7769 34.1645 34.1689C36.7725 31.561 40.3096 30.0959 43.9978 30.0959C47.686 30.0959 51.2231 31.561 53.8311 34.1689C56.439 36.7769 57.9041 40.314 57.9041 44.0022C57.9041 47.6904 56.439 51.2275 53.8311 53.8355C51.2231 56.4434 47.686 57.9085 43.9978 57.9085Z" fill="#FF9000"/>
<path d="M66.8033 26.865C69.8146 26.865 72.2557 24.4239 72.2557 21.4127C72.2557 18.4014 69.8146 15.9603 66.8033 15.9603C63.7921 15.9603 61.351 18.4014 61.351 21.4127C61.351 24.4239 63.7921 26.865 66.8033 26.865Z" fill="#FF9000"/>
</svg>
