<svg width="103" height="88" viewBox="0 0 103 88" fill="none" xmlns="http://www.w3.org/2000/svg">
<path d="M101.758 67.371C99.7443 70.1822 94.8429 72.1818 94.8429 72.1818L58.2873 86.7528V76.0027L85.1827 65.3516C88.2304 64.144 88.7117 62.4216 86.2164 61.5109C83.739 60.6002 79.2475 60.8576 76.1997 62.085L58.2873 69.1132V57.9474C62.4223 56.4032 66.6821 55.2549 71.7796 54.6214C79.0693 53.7305 87.9809 54.7402 94.9855 57.69C102.863 60.4616 103.755 64.5597 101.758 67.371ZM61.7629 49.0583V21.5397C61.7629 18.3127 61.2282 15.3431 58.5012 14.4918C56.4159 13.7395 55.1148 15.8974 55.1148 19.1244V88L38.3966 82.1003V0C45.508 1.46502 55.8634 4.92958 61.4242 7.00832C75.5937 12.413 80.3882 19.1442 80.3882 34.2893C80.3882 49.0385 72.1895 54.6412 61.7629 49.0583ZM7.70487 74.8742C-0.386905 72.3402 -1.74147 67.0542 1.94794 64.0252C5.35219 61.2139 11.1626 59.0956 11.1626 59.0956L35.1349 49.6324V60.422L17.882 67.272C14.8342 68.4796 14.3708 70.202 16.8482 71.1127C19.3256 72.0234 23.8171 71.766 26.8649 70.5386L35.1349 67.1928V76.854C25.9381 78.6952 17.0621 78.2992 7.70487 74.8742Z" fill="#F5F1ED"/>
</svg>
