<svg width="88" height="88" viewBox="0 0 88 88" fill="none" xmlns="http://www.w3.org/2000/svg">
<path d="M44 0C49.7782 0 55.4997 1.13809 60.8381 3.3493C66.1764 5.56051 71.0269 8.80152 75.1127 12.8873C79.1985 16.9731 82.4395 21.8236 84.6507 27.1619C86.8619 32.5003 88 38.2218 88 44C88 55.6695 83.3643 66.8611 75.1127 75.1127C66.8611 83.3643 55.6695 88 44 88C23.76 88 6.82 74.448 1.584 56.012L18.436 62.964C19.0157 65.7814 20.5487 68.3129 22.7767 70.1322C25.0047 71.9514 27.7916 72.9473 30.668 72.952C37.532 72.952 43.12 67.364 43.12 60.5V59.928L58.08 49.236H58.432C67.584 49.236 75.02 41.8 75.02 32.648C75.02 23.496 67.584 16.06 58.432 16.06C49.28 16.06 41.8 23.496 41.8 32.648V32.868L31.372 48.092L30.668 48.048C28.072 48.048 25.652 48.84 23.672 50.204L0 40.48C1.892 17.82 20.812 0 44 0ZM27.632 66.748C31.152 68.2 35.2 66.572 36.652 63.052C38.104 59.532 36.432 55.528 33 54.076L27.368 51.744C29.524 50.952 31.944 50.908 34.232 51.876C36.564 52.8 38.368 54.604 39.292 56.936C40.26 59.224 40.26 61.776 39.292 64.064C37.4 68.816 31.812 71.104 27.06 69.124C24.86 68.2 23.188 66.528 22.264 64.548L27.632 66.748ZM69.52 32.648C69.52 38.764 64.548 43.736 58.432 43.736C55.4989 43.7244 52.6899 42.551 50.62 40.4729C48.5501 38.3947 47.388 35.5811 47.388 32.648C47.3822 31.1961 47.6639 29.7573 48.2168 28.4148C48.7698 27.0722 49.583 25.8524 50.6097 24.8257C51.6364 23.799 52.8562 22.9858 54.1988 22.4328C55.5413 21.8799 56.9801 21.5982 58.432 21.604C61.3651 21.604 64.1787 22.7661 66.2569 24.836C68.335 26.9059 69.5084 29.7149 69.52 32.648ZM50.16 32.648C50.16 37.224 53.856 40.964 58.476 40.964C63.052 40.964 66.748 37.224 66.748 32.648C66.748 28.072 63.052 24.332 58.476 24.332C53.856 24.332 50.16 28.072 50.16 32.648Z" fill="#F5F1ED"/>
</svg>
