<svg width="92" height="92" viewBox="0 0 92 92" fill="none" xmlns="http://www.w3.org/2000/svg">
<path d="M39.4194 2H22.5752C17.1183 2 11.8849 4.13955 8.02633 7.94799C4.16773 11.7564 2 16.9218 2 22.3077V69.6923C2 75.0782 4.16773 80.2436 8.02633 84.052C11.8849 87.8604 17.1183 90 22.5752 90H39.4194V2Z" stroke="#FF9000" stroke-width="4" stroke-linecap="round" stroke-linejoin="round"/>
<path d="M13.6936 28.9348C13.6936 30.7714 14.4328 32.5328 15.7485 33.8314C17.0643 35.1301 18.8489 35.8597 20.7097 35.8597C22.5705 35.8597 24.3551 35.1301 25.6709 33.8314C26.9866 32.5328 27.7258 30.7714 27.7258 28.9348C27.7258 27.0982 26.9866 25.3368 25.6709 24.0381C24.3551 22.7394 22.5705 22.0098 20.7097 22.0098C18.8489 22.0098 17.0643 22.7394 15.7485 24.0381C14.4328 25.3368 13.6936 27.0982 13.6936 28.9348ZM52.5875 90H69.4248C74.8817 90 80.1151 87.8604 83.9737 84.052C87.8323 80.2436 90 75.0782 90 69.6923V22.3077C90 16.9218 87.8323 11.7564 83.9737 7.94799C80.1151 4.13955 74.8817 2 69.4248 2H52.5875V90Z" stroke="#F5F1ED" stroke-width="4" stroke-linecap="round" stroke-linejoin="round"/>
<path d="M78.3065 56.5938C78.3065 54.7572 77.5673 52.9958 76.2515 51.6971C74.9357 50.3985 73.1511 49.6689 71.2903 49.6689C69.4295 49.6689 67.645 50.3985 66.3292 51.6971C65.0134 52.9958 64.2742 54.7572 64.2742 56.5938C64.2742 58.4304 65.0134 60.1918 66.3292 61.4905C67.645 62.7891 69.4295 63.5187 71.2903 63.5187C73.1511 63.5187 74.9357 62.7891 76.2515 61.4905C77.5673 60.1918 78.3065 58.4304 78.3065 56.5938Z" stroke="#FF9000" stroke-width="4" stroke-linecap="round" stroke-linejoin="round"/>
</svg>
