<svg width="88" height="88" viewBox="0 0 88 88" fill="none" xmlns="http://www.w3.org/2000/svg">
<path d="M66 30.5668C64.3808 31.2708 62.6428 31.7548 60.8168 31.966C62.6824 30.866 64.108 29.1236 64.7856 27.0512C63.0078 28.0873 61.0681 28.8161 59.048 29.2072C58.1983 28.3165 57.176 27.6083 56.0435 27.1256C54.9111 26.643 53.6922 26.3961 52.4612 26.4C47.476 26.4 43.4368 30.382 43.4368 35.288C43.4368 35.9832 43.516 36.6608 43.67 37.312C40.0942 37.1422 36.5931 36.2289 33.3901 34.6304C30.187 33.0319 27.3523 30.7833 25.0668 28.028C24.2641 29.3793 23.8414 30.9223 23.8436 32.494C23.8436 35.574 25.4408 38.302 27.8608 39.8904C26.4284 39.8455 25.0266 39.4641 23.7688 38.7772V38.8872C23.7824 40.9528 24.5115 42.9499 25.832 44.5384C27.1525 46.1268 28.9828 47.2085 31.0112 47.5992C29.6796 47.9513 28.2862 48.0024 26.9324 47.7488C27.5226 49.5258 28.6514 51.075 30.1621 52.1813C31.6728 53.2875 33.4905 53.8959 35.3628 53.922C32.1506 56.3973 28.2068 57.7346 24.1516 57.7236C23.4256 57.7236 22.7084 57.6796 22 57.6004C26.1381 60.2197 30.9362 61.6069 35.8336 61.6C52.4392 61.6 61.5164 48.0568 61.5164 36.3088L61.4856 35.156C63.2557 33.912 64.7853 32.3571 66 30.5668Z" fill="#FF9000"/>
<path d="M17.6 8.8C15.2661 8.8 13.0278 9.72714 11.3775 11.3775C9.72714 13.0278 8.8 15.2661 8.8 17.6V70.4C8.8 72.7339 9.72714 74.9722 11.3775 76.6225C13.0278 78.2729 15.2661 79.2 17.6 79.2H70.4C72.7339 79.2 74.9722 78.2729 76.6225 76.6225C78.2729 74.9722 79.2 72.7339 79.2 70.4V17.6C79.2 15.2661 78.2729 13.0278 76.6225 11.3775C74.9722 9.72714 72.7339 8.8 70.4 8.8H17.6ZM17.6 0H70.4C75.0678 0 79.5444 1.85428 82.8451 5.15492C86.1457 8.45556 88 12.9322 88 17.6V70.4C88 75.0678 86.1457 79.5444 82.8451 82.8451C79.5444 86.1457 75.0678 88 70.4 88H17.6C12.9322 88 8.45556 86.1457 5.15492 82.8451C1.85428 79.5444 0 75.0678 0 70.4V17.6C0 12.9322 1.85428 8.45556 5.15492 5.15492C8.45556 1.85428 12.9322 0 17.6 0Z" fill="#F5F1ED"/>
</svg>
