<svg width="150" height="143" viewBox="0 0 150 143" fill="none" xmlns="http://www.w3.org/2000/svg">
<path d="M115.87 6.42636C113.798 2.47524 109.705 0 105.243 0H44.7566C40.295 0 36.2018 2.47525 34.1295 6.42636L2.92323 65.9264C1.09266 69.4167 1.09266 73.5833 2.92324 77.0736L34.1295 136.574C36.2018 140.525 40.295 143 44.7566 143H105.243C109.705 143 113.798 140.525 115.87 136.574L147.077 77.0736C148.907 73.5833 148.907 69.4167 147.077 65.9264L115.87 6.42636ZM107.573 120.669C105.504 124.629 101.406 127.111 96.9381 127.111H53.0536C48.5901 127.111 44.4954 124.634 42.424 120.68L19.5762 77.0688C17.7489 73.5811 17.7489 69.4189 19.5762 65.9312L42.424 22.3201C44.4954 18.3663 48.5901 15.8889 53.0536 15.8889H96.8743C101.338 15.8889 105.433 18.3663 107.504 22.3201L130.355 65.9381C132.181 69.422 132.183 73.5791 130.361 77.0649L107.573 120.669Z" fill="#FF9000"/>
<path d="M112.414 129.717C110.341 133.664 106.25 136.136 101.791 136.136H48.2088C43.7503 136.136 39.6593 133.664 37.5857 129.717L9.93216 77.0809C8.09635 73.5866 8.09636 69.413 9.93216 65.9187L37.5857 13.2827C39.6593 9.33569 43.7503 6.86377 48.2088 6.86377H101.791C106.25 6.86377 110.341 9.33569 112.414 13.2827L140.068 65.9187C141.904 69.413 141.904 73.5866 140.068 77.0809L112.414 129.717Z" fill="#FF9000"/>
</svg>
