<svg width="294" height="250" viewBox="0 0 294 250" fill="none" xmlns="http://www.w3.org/2000/svg">
<path d="M227.826 9.71007C224.212 3.68597 217.701 0 210.676 0H83.3238C76.2986 0 69.7884 3.68598 66.174 9.71008L3.17394 114.71C-0.626244 121.044 -0.626239 128.956 3.17395 135.29L66.174 240.29C69.7884 246.314 76.2986 250 83.3238 250H210.676C217.701 250 224.212 246.314 227.826 240.29L290.826 135.29C294.626 128.956 294.626 121.044 290.826 114.71L227.826 9.71007ZM211.235 212.485C207.624 218.525 201.105 222.222 194.069 222.222H99.9168C92.888 222.222 86.3752 218.533 82.7619 212.504L36.4795 135.282C32.686 128.952 32.6859 121.048 36.4795 114.718L82.7619 37.4962C86.3752 31.4674 92.888 27.7778 99.9168 27.7778H193.939C200.968 27.7778 207.481 31.4674 211.094 37.4962L257.384 114.731C261.173 121.054 261.178 128.949 257.395 135.276L211.235 212.485Z" fill="#FF9000"/>
</svg>
