<svg width="30" height="22" viewBox="0 0 30 22" fill="none" xmlns="http://www.w3.org/2000/svg">
<path d="M1.66667 3.14286C2.10869 3.14286 2.53262 2.9773 2.84518 2.6826C3.15774 2.3879 3.33333 1.9882 3.33333 1.57143C3.33333 1.15466 3.15774 0.754961 2.84518 0.460261C2.53262 0.165561 2.10869 0 1.66667 0C1.22464 0 0.800716 0.165561 0.488155 0.460261C0.175595 0.754961 0 1.15466 0 1.57143C0 1.9882 0.175595 2.3879 0.488155 2.6826C0.800716 2.9773 1.22464 3.14286 1.66667 3.14286Z" fill="white"/>
<path d="M8.33333 0C7.89131 0 7.46738 0.165561 7.15482 0.460261C6.84226 0.754961 6.66667 1.15466 6.66667 1.57143C6.66667 1.9882 6.84226 2.3879 7.15482 2.6826C7.46738 2.9773 7.89131 3.14286 8.33333 3.14286H28.3333C28.7754 3.14286 29.1993 2.9773 29.5118 2.6826C29.8244 2.3879 30 1.9882 30 1.57143C30 1.15466 29.8244 0.754961 29.5118 0.460261C29.1993 0.165561 28.7754 0 28.3333 0H8.33333Z" fill="#FF9000"/>
<path d="M6.66667 11C6.66667 10.5832 6.84226 10.1835 7.15482 9.88883C7.46738 9.59413 7.89131 9.42857 8.33333 9.42857H28.3333C28.7754 9.42857 29.1993 9.59413 29.5118 9.88883C29.8244 10.1835 30 10.5832 30 11C30 11.4168 29.8244 11.8165 29.5118 12.1112C29.1993 12.4059 28.7754 12.5714 28.3333 12.5714H8.33333C7.89131 12.5714 7.46738 12.4059 7.15482 12.1112C6.84226 11.8165 6.66667 11.4168 6.66667 11Z" fill="#FF9000"/>
<path d="M8.33333 18.8571C7.89131 18.8571 7.46738 19.0227 7.15482 19.3174C6.84226 19.6121 6.66667 20.0118 6.66667 20.4286C6.66667 20.8453 6.84226 21.245 7.15482 21.5397C7.46738 21.8344 7.89131 22 8.33333 22H28.3333C28.7754 22 29.1993 21.8344 29.5118 21.5397C29.8244 21.245 30 20.8453 30 20.4286C30 20.0118 29.8244 19.6121 29.5118 19.3174C29.1993 19.0227 28.7754 18.8571 28.3333 18.8571H8.33333Z" fill="#FF9000"/>
<path d="M1.66667 12.5714C2.10869 12.5714 2.53262 12.4059 2.84518 12.1112C3.15774 11.8165 3.33333 11.4168 3.33333 11C3.33333 10.5832 3.15774 10.1835 2.84518 9.88883C2.53262 9.59413 2.10869 9.42857 1.66667 9.42857C1.22464 9.42857 0.800716 9.59413 0.488155 9.88883C0.175595 10.1835 0 10.5832 0 11C0 11.4168 0.175595 11.8165 0.488155 12.1112C0.800716 12.4059 1.22464 12.5714 1.66667 12.5714Z" fill="white"/>
<path d="M3.33333 20.4286C3.33333 20.8453 3.15774 21.245 2.84518 21.5397C2.53262 21.8344 2.10869 22 1.66667 22C1.22464 22 0.800716 21.8344 0.488155 21.5397C0.175595 21.245 0 20.8453 0 20.4286C0 20.0118 0.175595 19.6121 0.488155 19.3174C0.800716 19.0227 1.22464 18.8571 1.66667 18.8571C2.10869 18.8571 2.53262 19.0227 2.84518 19.3174C3.15774 19.6121 3.33333 20.0118 3.33333 20.4286Z" fill="white"/>
</svg>
