<svg width="300" height="250" viewBox="0 0 300 250" fill="none" xmlns="http://www.w3.org/2000/svg">
<path d="M230.826 9.71007C227.212 3.68597 220.701 0 213.676 0H86.3238C79.2986 0 72.7884 3.68598 69.174 9.71008L6.17394 114.71C2.37376 121.044 2.37376 128.956 6.17395 135.29L69.174 240.29C72.7884 246.314 79.2986 250 86.3238 250H213.676C220.701 250 227.212 246.314 230.826 240.29L293.826 135.29C297.626 128.956 297.626 121.044 293.826 114.71L230.826 9.71007ZM214.235 212.485C210.624 218.525 204.105 222.222 197.069 222.222H102.917C95.888 222.222 89.3752 218.533 85.7619 212.504L39.4795 135.282C35.686 128.952 35.686 121.048 39.4795 114.718L85.7619 37.4962C89.3752 31.4674 95.888 27.7778 102.917 27.7778H196.939C203.968 27.7778 210.481 31.4674 214.094 37.4962L260.384 114.731C264.173 121.054 264.178 128.949 260.395 135.276L214.235 212.485Z" fill="#FF9000"/>
<path d="M223.912 228.303C220.296 234.32 213.79 238 206.77 238H93.2298C86.2099 238 79.7039 234.32 76.0877 228.303L20.1923 135.303C16.3817 128.963 16.3817 121.037 20.1923 114.697L76.0877 21.6972C79.7039 15.6804 86.2099 12 93.2298 12H206.77C213.79 12 220.296 15.6804 223.912 21.6972L279.808 114.697C283.618 121.037 283.618 128.963 279.808 135.303L223.912 228.303Z" fill="#F5F1ED"/>
</svg>
