<svg width="88" height="88" viewBox="0 0 88 88" fill="none" xmlns="http://www.w3.org/2000/svg">
<path d="M10.8743 79.2179L24.1623 74.5129L26.488 75.7476C31.8309 78.5773 37.7709 80.0855 44 80.0855C64.8057 80.0855 81.7143 62.6936 81.7143 43.3797C81.7143 24.0657 64.8057 6.67379 44 6.67379C23.1943 6.67379 6.28571 24.0657 6.28571 43.3797C6.28571 50.5874 8.73714 57.9018 13.244 64.1552L15.4126 67.1584L10.868 79.2113L10.8743 79.2179ZM6.43029 87.8271C5.86147 88.0295 5.24999 88.0548 4.66809 87.9C4.08618 87.7452 3.55814 87.4168 3.14636 86.9537C2.73458 86.4905 2.45624 85.9118 2.34424 85.2861C2.23224 84.6604 2.29124 84.0137 2.51429 83.4224L8.24686 68.2062C3.01714 60.9317 0 52.2291 0 43.3797C0 21.2627 18.8571 0 44 0C69.1429 0 88 21.2627 88 43.3797C88 65.4966 69.1429 86.7593 44 86.7593C36.9485 86.7804 29.9898 85.0528 23.6783 81.7139L6.43029 87.8205V87.8271Z" fill="#F5F1ED"/>
<path d="M44 48.7187C43.3396 48.7187 42.6857 48.5806 42.0757 48.3123C41.4656 48.044 40.9112 47.6507 40.4443 47.1549C39.9773 46.6591 39.6069 46.0706 39.3542 45.4228C39.1015 44.7751 38.9714 44.0808 38.9714 43.3797C38.9714 42.6785 39.1015 41.9843 39.3542 41.3365C39.6069 40.6887 39.9773 40.1002 40.4443 39.6044C40.9112 39.1086 41.4656 38.7153 42.0757 38.447C42.6857 38.1787 43.3396 38.0406 44 38.0406C45.3337 38.0406 46.6127 38.6031 47.5557 39.6044C48.4988 40.6057 49.0286 41.9637 49.0286 43.3797C49.0286 44.7957 48.4988 46.1537 47.5557 47.1549C46.6127 48.1562 45.3337 48.7187 44 48.7187ZM62.8571 48.7187C62.1968 48.7187 61.5429 48.5806 60.9328 48.3123C60.3227 48.044 59.7684 47.6507 59.3014 47.1549C58.8345 46.6591 58.4641 46.0706 58.2114 45.4228C57.9586 44.7751 57.8286 44.0808 57.8286 43.3797C57.8286 42.6785 57.9586 41.9843 58.2114 41.3365C58.4641 40.6887 58.8345 40.1002 59.3014 39.6044C59.7684 39.1086 60.3227 38.7153 60.9328 38.447C61.5429 38.1787 62.1968 38.0406 62.8571 38.0406C64.1908 38.0406 65.4698 38.6031 66.4129 39.6044C67.3559 40.6057 67.8857 41.9637 67.8857 43.3797C67.8857 44.7957 67.3559 46.1537 66.4129 47.1549C65.4698 48.1562 64.1908 48.7187 62.8571 48.7187ZM25.1429 48.7187C24.4825 48.7187 23.8286 48.5806 23.2185 48.3123C22.6084 48.044 22.0541 47.6507 21.5871 47.1549C21.1202 46.6591 20.7498 46.0706 20.4971 45.4228C20.2444 44.7751 20.1143 44.0808 20.1143 43.3797C20.1143 42.6785 20.2444 41.9843 20.4971 41.3365C20.7498 40.6887 21.1202 40.1002 21.5871 39.6044C22.0541 39.1086 22.6084 38.7153 23.2185 38.447C23.8286 38.1787 24.4825 38.0406 25.1429 38.0406C26.4765 38.0406 27.7556 38.6031 28.6986 39.6044C29.6416 40.6057 30.1714 41.9637 30.1714 43.3797C30.1714 44.7957 29.6416 46.1537 28.6986 47.1549C27.7556 48.1562 26.4765 48.7187 25.1429 48.7187Z" fill="#FF9000"/>
</svg>
