<svg width="88" height="88" viewBox="0 0 88 88" fill="none" xmlns="http://www.w3.org/2000/svg">
<path d="M20.625 4.5H67.375C76.2806 4.5 83.5 11.7194 83.5 20.625V67.375C83.5 76.2806 76.2806 83.5 67.375 83.5H20.625C11.7194 83.5 4.5 76.2806 4.5 67.375V20.625C4.5 11.7194 11.7194 4.5 20.625 4.5Z" fill="#533A7B" stroke="#FF9000" stroke-width="9"/>
<mask id="mask0_49_207" style="mask-type:luminance" maskUnits="userSpaceOnUse" x="18" y="24" width="52" height="40">
<path d="M18 24H69.375V63.7976H18V24Z" fill="white"/>
</mask>
<g mask="url(#mask0_49_207)">
<path d="M61.491 27.5441C58.1603 26.0151 54.6452 24.9249 51.0339 24.3005C51.0011 24.2945 50.9672 24.2989 50.937 24.3132C50.9069 24.3275 50.882 24.3509 50.8659 24.3802C50.4143 25.1832 49.9139 26.2312 49.5638 27.0548C45.6149 26.4634 41.6865 26.4634 37.8187 27.0548C37.4683 26.2127 36.95 25.1832 36.4963 24.3802C36.4795 24.3515 36.4545 24.3286 36.4245 24.3144C36.3945 24.3002 36.3609 24.2954 36.3281 24.3005C32.7164 24.9236 29.2012 26.0139 25.8709 27.5441C25.8424 27.5562 25.8184 27.5769 25.8021 27.6032C19.1419 37.5535 17.3175 47.2593 18.2125 56.8448C18.215 56.8683 18.2222 56.8911 18.2336 56.9117C18.2451 56.9324 18.2606 56.9505 18.2793 56.965C22.6734 60.1921 26.93 62.1513 31.1076 63.4498C31.1401 63.4595 31.1748 63.4591 31.207 63.4485C31.2392 63.438 31.2675 63.4178 31.2879 63.3908C32.2761 62.0411 33.157 60.6183 33.9124 59.122C33.9228 59.1015 33.9288 59.079 33.9298 59.0561C33.9309 59.0331 33.9271 59.0102 33.9187 58.9888C33.9103 58.9674 33.8974 58.9481 33.881 58.932C33.8645 58.916 33.8449 58.9036 33.8233 58.8957C32.4259 58.3655 31.0955 57.7195 29.8158 56.9856C29.7925 56.9718 29.7729 56.9526 29.7588 56.9295C29.7447 56.9064 29.7365 56.8802 29.7349 56.8532C29.7333 56.8262 29.7383 56.7992 29.7496 56.7747C29.7609 56.7501 29.7781 56.7287 29.7996 56.7123C30.0696 56.5104 30.3349 56.3025 30.5954 56.0886C30.6182 56.0697 30.6458 56.0576 30.6751 56.0536C30.7045 56.0496 30.7343 56.0539 30.7613 56.066C39.1694 59.9047 48.2717 59.9047 56.5804 56.066C56.6075 56.0531 56.6377 56.0482 56.6675 56.0519C56.6972 56.0555 56.7254 56.0675 56.7486 56.0865C57.0093 56.3017 57.2754 56.5103 57.5465 56.7123C57.5681 56.7285 57.5854 56.7498 57.5968 56.7743C57.6083 56.7988 57.6136 56.8257 57.6122 56.8527C57.6108 56.8797 57.6028 56.9059 57.5888 56.9291C57.5749 56.9523 57.5555 56.9717 57.5323 56.9856C56.2519 57.7332 54.9106 58.3715 53.5228 58.8936C53.5012 58.9019 53.4817 58.9146 53.4653 58.9309C53.449 58.9472 53.4364 58.9668 53.4281 58.9883C53.4199 59.0099 53.4163 59.0329 53.4176 59.056C53.4189 59.079 53.4251 59.1015 53.4357 59.122C54.2043 60.6064 55.0807 62.0325 56.0579 63.3887C56.0778 63.4165 56.1059 63.4373 56.1382 63.4483C56.1706 63.4592 56.2055 63.4598 56.2382 63.4498C60.436 62.1513 64.6927 60.1921 69.0871 56.965C69.1059 56.9512 69.1216 56.9335 69.1331 56.9131C69.1446 56.8927 69.1517 56.8702 69.1539 56.8469C70.225 45.765 67.3596 36.1386 61.5578 27.6052C61.5436 27.5775 61.5199 27.5558 61.491 27.5441ZM35.168 51.0084C32.6365 51.0084 30.5507 48.6844 30.5507 45.8303C30.5507 42.9761 32.5962 40.6522 35.168 40.6522C37.7599 40.6522 39.8254 42.9967 39.7848 45.8303C39.7848 48.6844 37.7396 51.0084 35.168 51.0084ZM52.2389 51.0084C49.7074 51.0084 47.6218 48.6844 47.6218 45.8303C47.6218 42.9761 49.6671 40.6522 52.2389 40.6522C54.8308 40.6522 56.8963 42.9967 56.856 45.8303C56.856 48.6844 54.8308 51.0084 52.2389 51.0084Z" fill="#F5F1ED"/>
</g>
</svg>
