<svg width="88" height="88" viewBox="0 0 88 88" fill="none" xmlns="http://www.w3.org/2000/svg">
<path d="M20.625 4.5H67.375C76.2806 4.5 83.5 11.7194 83.5 20.625V67.375C83.5 76.2806 76.2806 83.5 67.375 83.5H20.625C11.7194 83.5 4.5 76.2806 4.5 67.375V20.625C4.5 11.7194 11.7194 4.5 20.625 4.5Z" fill="#533A7B" stroke="#FF9000" stroke-width="9"/>
<mask id="mask0_49_207" style="mask-type:luminance" maskUnits="userSpaceOnUse" x="9" y="17" width="70" height="54">
<path d="M9.625 17.5312H78.375V70.7884H9.625V17.5312Z" fill="white"/>
</mask>
<g mask="url(#mask0_49_207)">
<path d="M67.8247 22.274C63.3675 20.2279 58.6637 18.7689 53.831 17.9334C53.787 17.9253 53.7417 17.9312 53.7013 17.9504C53.661 17.9695 53.6277 18.0009 53.6062 18.04C53.0018 19.1146 52.3322 20.5171 51.8637 21.6191C46.5792 20.8278 41.3223 20.8278 36.1464 21.6191C35.6775 20.4923 34.9838 19.1146 34.3768 18.04C34.3543 18.0017 34.3208 17.971 34.2806 17.952C34.2405 17.933 34.1955 17.9265 34.1516 17.9334C29.3185 18.7672 24.6145 20.2263 20.1579 22.274C20.1198 22.2902 20.0876 22.3178 20.0658 22.353C11.153 35.6685 8.71172 48.6568 9.90935 61.4842C9.91268 61.5156 9.92231 61.546 9.93767 61.5737C9.95302 61.6013 9.97379 61.6256 9.99872 61.645C15.8789 65.9636 21.5752 68.5853 27.1656 70.323C27.2091 70.336 27.2555 70.3354 27.2986 70.3212C27.3417 70.3071 27.3795 70.2801 27.4069 70.2439C28.7293 68.4379 29.908 66.5338 30.919 64.5315C30.9329 64.5041 30.9409 64.474 30.9423 64.4433C30.9438 64.4126 30.9387 64.3819 30.9274 64.3533C30.9162 64.3246 30.8989 64.2987 30.8769 64.2773C30.8549 64.2558 30.8286 64.2392 30.7997 64.2287C28.9297 63.5192 27.1494 62.6546 25.4369 61.6725C25.4057 61.6542 25.3795 61.6284 25.3606 61.5975C25.3417 61.5666 25.3307 61.5316 25.3286 61.4954C25.3264 61.4593 25.3332 61.4232 25.3483 61.3903C25.3634 61.3574 25.3864 61.3287 25.4152 61.3068C25.7765 61.0367 26.1316 60.7584 26.4802 60.4722C26.5107 60.4469 26.5476 60.4307 26.5869 60.4254C26.6261 60.42 26.6661 60.4257 26.7022 60.4419C37.9538 65.5789 50.1346 65.5789 61.2532 60.4419C61.2895 60.4247 61.3299 60.4182 61.3698 60.423C61.4096 60.4279 61.4473 60.444 61.4784 60.4694C61.8273 60.7573 62.1833 61.0365 62.5461 61.3068C62.575 61.3285 62.5982 61.357 62.6135 61.3898C62.6288 61.4225 62.6359 61.4586 62.634 61.4947C62.6321 61.5308 62.6214 61.5659 62.6028 61.5969C62.5841 61.628 62.5582 61.6539 62.5272 61.6725C60.8136 62.673 59.0187 63.5272 57.1616 64.2259C57.1327 64.2369 57.1065 64.2539 57.0847 64.2757C57.0629 64.2976 57.0459 64.3238 57.0349 64.3526C57.0239 64.3815 57.0191 64.4123 57.0209 64.4431C57.0226 64.474 57.0309 64.5041 57.045 64.5315C58.0735 66.518 59.2463 68.4263 60.554 70.2412C60.5807 70.2783 60.6182 70.3062 60.6615 70.3209C60.7048 70.3356 60.7516 70.3363 60.7953 70.323C66.4129 68.5853 72.1092 65.9636 77.9897 61.645C78.0149 61.6265 78.0359 61.6028 78.0513 61.5755C78.0667 61.5483 78.0762 61.5181 78.0791 61.4869C79.5125 46.6572 75.678 33.7752 67.9141 22.3558C67.895 22.3187 67.8633 22.2896 67.8247 22.274ZM32.5993 53.6738C29.2116 53.6738 26.4203 50.5639 26.4203 46.7445C26.4203 42.9251 29.1576 39.8152 32.5993 39.8152C36.0677 39.8152 38.8318 42.9526 38.7775 46.7445C38.7775 50.5639 36.0405 53.6738 32.5993 53.6738ZM55.4435 53.6738C52.0558 53.6738 49.2649 50.5639 49.2649 46.7445C49.2649 42.9251 52.0019 39.8152 55.4435 39.8152C58.9119 39.8152 61.676 42.9526 61.6221 46.7445C61.6221 50.5639 58.9119 53.6738 55.4435 53.6738Z" fill="#F5F1ED"/>
</g>
</svg>
