<svg width="88" height="88" viewBox="0 0 88 88" fill="none" xmlns="http://www.w3.org/2000/svg">
<path d="M45.0193 13.6086C44.7464 13.3288 44.3832 13.1727 44.0055 13.1727C43.6278 13.1727 43.2646 13.3288 42.9917 13.6086L9.24007 48.1545C9.09673 48.3014 8.9827 48.4779 8.90486 48.6734C8.82703 48.8689 8.78701 49.0793 8.78724 49.2918L8.78174 81.7143C8.78174 83.3814 9.39983 84.9802 10.5 86.159C11.6003 87.3378 13.0925 88 14.6484 88H32.2667C33.0446 88 33.7907 87.6689 34.3409 87.0795C34.891 86.4901 35.2 85.6907 35.2 84.8572V58.1429C35.2 57.7261 35.3545 57.3264 35.6296 57.0317C35.9046 56.737 36.2777 56.5714 36.6667 56.5714H51.3333C51.7223 56.5714 52.0953 56.737 52.3704 57.0317C52.6454 57.3264 52.8 57.7261 52.8 58.1429V84.8572C52.8 85.6907 53.109 86.4901 53.6591 87.0795C54.2092 87.6689 54.9553 88 55.7333 88H73.3442C74.9002 88 76.3924 87.3378 77.4926 86.159C78.5928 84.9802 79.2109 83.3814 79.2109 81.7143V49.2918C79.2111 49.0793 79.1711 48.8689 79.0933 48.6734C79.0154 48.4779 78.9014 48.3014 78.7581 48.1545L45.0193 13.6086Z" fill="#FF9000"/>
<path d="M87.0667 41.6723L73.3534 27.6159V6.28571C73.3534 5.45218 73.0443 4.65278 72.4942 4.06338C71.9441 3.47398 71.198 3.14286 70.4201 3.14286H61.6201C60.8421 3.14286 60.096 3.47398 59.5459 4.06338C58.9958 4.65278 58.6868 5.45218 58.6868 6.28571V12.5714L48.0681 1.69321C47.0745 0.616785 45.5968 0 44 0C42.4086 0 40.9346 0.616786 39.941 1.69518L0.946067 41.6684C-0.194263 42.847 -0.337263 44.7857 0.700401 46.0625C0.960974 46.3848 1.28003 46.6469 1.63815 46.8328C1.99626 47.0188 2.38596 47.1248 2.7835 47.1442C3.18105 47.1637 3.57814 47.0963 3.95061 46.9461C4.32307 46.796 4.66312 46.5662 4.95006 46.2707L42.9916 7.32286C43.2646 7.0431 43.6277 6.88697 44.0055 6.88697C44.3832 6.88697 44.7463 7.0431 45.0193 7.32286L83.0645 46.2707C83.625 46.8465 84.3756 47.1608 85.1519 47.1446C85.9283 47.1284 86.6669 46.7831 87.206 46.1843C88.3317 44.935 88.2382 42.8725 87.0667 41.6723Z" fill="#F5F1ED"/>
</svg>
