<svg width="80" height="88" viewBox="0 0 80 88" fill="none" xmlns="http://www.w3.org/2000/svg">
<path fill-rule="evenodd" clip-rule="evenodd" d="M45.4246 4.35748C46.5399 5.55282 48.4326 5.77302 49.8183 4.86078C52.5221 3.06777 56.0371 5.77302 54.6514 8.54118L46.4723 17.2546H33.3925L25.1457 8.44681C23.76 5.64719 27.275 2.94195 29.9789 4.73496L30.2154 4.89224C31.6012 5.80448 33.4939 5.55282 34.5754 4.35748L37.5158 1.08602C37.8187 0.746221 38.1983 0.472735 38.6277 0.285026C39.0571 0.0973171 39.5256 0 40 0C40.4743 0 40.9429 0.0973171 41.3723 0.285026C41.8016 0.472735 42.1813 0.746221 42.4841 1.08602L45.4246 4.35748ZM0 60.4757C0 39.9032 17.913 23.2313 40.0169 23.2313C62.1208 23.2313 80.0338 39.9032 80 60.4757C80 75.6691 66.7511 88 50.4267 88H29.5733C13.2488 88 0 75.6691 0 60.4757Z" fill="#FF9000"/>
<path fill-rule="evenodd" clip-rule="evenodd" d="M34.2036 17.1917H45.8301C47.8918 17.1917 49.5817 18.7645 49.5817 20.6833C49.5817 22.6022 47.8918 24.175 45.8301 24.175H34.2036C32.1419 24.175 30.452 22.6022 30.452 20.6833C30.452 18.7645 32.1419 17.1917 34.2036 17.1917ZM40.0169 54.5618H40.2535C45.3232 54.6877 49.3789 58.5253 49.3789 63.2438C49.3789 67.2702 46.4385 70.6361 42.4503 71.6427V75.1658C42.4503 76.424 41.3688 77.4306 40.0169 77.4306C38.6649 77.4306 37.5834 76.424 37.5834 75.1658V71.6427C35.5975 71.1457 33.8428 70.0538 32.5904 68.5356C31.338 67.0175 30.6578 65.1578 30.6548 63.2438C30.6548 61.9856 31.7364 60.979 33.0883 60.979C34.4402 60.979 35.5217 61.9856 35.5217 63.2438C35.5217 65.5716 37.5158 67.4275 39.9831 67.4275C42.4503 67.4275 44.4782 65.5401 44.4782 63.2438C44.4782 60.9475 42.4503 59.0601 39.9831 59.0601H39.7465C37.3151 58.9987 35.0053 58.0575 33.3076 56.4363C31.61 54.8152 30.6583 52.6419 30.6548 50.3781C30.6548 46.3517 33.5952 42.9859 37.5834 41.9793V38.4562C37.5834 37.1979 38.6649 36.1913 40.0169 36.1913C41.3688 36.1913 42.4503 37.1979 42.4503 38.4562V41.9793C46.4385 42.9859 49.3789 46.3517 49.3789 50.3781C49.3789 51.6364 48.2974 52.643 46.9455 52.643C45.5935 52.643 44.512 51.6364 44.512 50.3781C44.512 48.0818 42.4841 46.1944 40.0169 46.1944C37.5496 46.1944 35.5217 48.0818 35.5217 50.3781C35.5217 52.6745 37.5496 54.5618 40.0169 54.5618Z" fill="#F5F1ED"/>
</svg>
