<svg width="104" height="88" viewBox="0 0 104 88" fill="none" xmlns="http://www.w3.org/2000/svg">
<path d="M32.8327 68.0566L35.6394 79.4905L25.7286 73.2151L15.8218 79.4905L18.6326 68.0566L9.69666 60.6397L21.3418 59.7055L25.7286 48.9905L30.1194 59.7055L41.7605 60.6397L32.8327 68.0566Z" fill="#F5F1ED"/>
<path d="M51.3951 57.5852C51.3158 57.3346 51.1638 57.1131 50.9584 56.949C50.753 56.7848 50.5035 56.6854 50.2416 56.6632L33.3282 55.3147L26.9593 39.7539C26.8588 39.5105 26.688 39.3024 26.4689 39.1563C26.2497 39.0102 25.992 38.9326 25.7286 38.9334C25.1924 38.9334 24.7091 39.2543 24.5019 39.7539L18.133 55.3147L1.21563 56.6632C0.953332 56.6859 0.703563 56.7854 0.497631 56.9495C0.291699 57.1135 0.138769 57.3347 0.0580134 57.5852C-0.096335 58.1011 0.0620752 58.6616 0.476379 59.0069L13.4335 69.7666L9.35954 86.359C9.22956 86.883 9.43265 87.4354 9.87132 87.7482C10.1028 87.9188 10.3709 88 10.6431 88C10.8908 88 11.1386 87.9309 11.3539 87.7969L25.7286 78.6985L40.1033 87.7928C40.5623 88.0853 41.1472 88.065 41.5859 87.7482C41.8004 87.5945 41.964 87.3799 42.0552 87.1322C42.1465 86.8846 42.1612 86.6152 42.0976 86.359L38.0237 69.7666L50.9808 59.0028C51.1841 58.8354 51.3324 58.6106 51.4063 58.3578C51.4802 58.105 51.4763 57.8358 51.3951 57.5852ZM32.8327 68.0566L35.6434 79.4905L25.7286 73.215L15.8178 79.4865L18.6286 68.0525L9.6926 60.6356L21.3378 59.7055L25.7286 48.9905L30.1194 59.7055L41.7605 60.6356L32.8327 68.0566Z" fill="#FF9000"/>
<path d="M85.027 67.7016L87.8337 79.1355L77.9229 72.86L68.0162 79.1355L70.827 67.7016L61.891 60.2847L73.5362 59.3505L77.9229 48.6355L82.3137 59.3505L93.9548 60.2847L85.027 67.7016Z" fill="#F5F1ED"/>
<path d="M103.589 57.2302C103.51 56.9796 103.358 56.7581 103.153 56.594C102.947 56.4298 102.698 56.3304 102.436 56.3082L85.5226 54.9597L79.1537 39.3989C79.0531 39.1555 78.8824 38.9474 78.6632 38.8013C78.444 38.6552 78.1863 38.5776 77.9229 38.5785C77.3868 38.5785 76.9034 38.8993 76.6963 39.3989L70.3274 54.9597L53.41 56.3082C53.1477 56.3309 52.8979 56.4304 52.692 56.5945C52.486 56.7585 52.3331 56.9797 52.2523 57.2302C52.098 57.7461 52.2564 58.3066 52.6707 58.6519L65.6279 69.4116L61.5539 86.004C61.4239 86.528 61.627 87.0804 62.0657 87.3932C62.2972 87.5638 62.5653 87.645 62.8374 87.645C63.0852 87.645 63.3329 87.5759 63.5482 87.4419L77.9229 78.3435L92.2976 87.4378C92.7566 87.7303 93.3415 87.71 93.7802 87.3932C93.9948 87.2395 94.1583 87.0249 94.2495 86.7772C94.3408 86.5296 94.3556 86.2602 94.292 86.004L90.218 69.4116L103.175 58.6478C103.378 58.4804 103.527 58.2556 103.601 58.0028C103.675 57.75 103.671 57.4808 103.589 57.2302ZM85.027 67.7016L87.8378 79.1355L77.9229 72.86L68.0121 79.1315L70.8229 67.6975L61.8869 60.2806L73.5321 59.3505L77.9229 48.6355L82.3137 59.3505L93.9548 60.2806L85.027 67.7016Z" fill="#FF9000"/>
<path d="M57.7951 29.1231L60.6018 40.5571L50.691 34.2816L40.7843 40.5571L43.5951 29.1231L34.6591 21.7063L46.3043 20.7721L50.691 10.057L55.0818 20.7721L66.723 21.7063L57.7951 29.1231Z" fill="#F5F1ED"/>
<path d="M76.3576 18.6518C76.2783 18.4011 76.1263 18.1797 75.9209 18.0156C75.7155 17.8514 75.466 17.7519 75.2041 17.7298L58.2907 16.3812L51.9218 0.82049C51.8213 0.577021 51.6506 0.368983 51.4314 0.222868C51.2122 0.0767528 50.9545 -0.000827384 50.6911 6.65481e-06C50.155 6.65481e-06 49.6716 0.320889 49.4644 0.82049L43.0955 16.3812L26.1782 17.7298C25.9159 17.7524 25.6661 17.852 25.4602 18.016C25.2542 18.18 25.1013 18.4012 25.0205 18.6518C24.8662 19.1676 25.0246 19.7282 25.4389 20.0734L38.396 30.8331L34.3221 47.4256C34.1921 47.9496 34.3952 48.502 34.8338 48.8147C35.0654 48.9853 35.3334 49.0666 35.6056 49.0666C35.8534 49.0666 36.1011 48.9975 36.3164 48.8635L50.6911 39.765L65.0658 48.8594C65.5248 49.1518 66.1097 49.1315 66.5484 48.8147C66.763 48.661 66.9265 48.4465 67.0177 48.1988C67.109 47.9511 67.1238 47.6818 67.0602 47.4256L62.9862 30.8331L75.9433 20.0694C76.1467 19.9019 76.2949 19.6772 76.3688 19.4244C76.4427 19.1716 76.4388 18.9024 76.3576 18.6518ZM57.7952 29.1231L60.606 40.5571L50.6911 34.2816L40.7803 40.553L43.5911 29.1191L34.6551 21.7022L46.3003 20.7721L50.6911 10.057L55.0819 20.7721L66.723 21.7022L57.7952 29.1231Z" fill="#FF9000"/>
</svg>
