<svg width="88" height="88" viewBox="0 0 88 88" fill="none" xmlns="http://www.w3.org/2000/svg">
<path d="M44 0C35.2976 0 26.7907 2.58055 19.5549 7.41534C12.3192 12.2501 6.67957 19.122 3.34932 27.1619C0.0190645 35.2019 -0.852282 44.0488 0.845467 52.584C2.54322 61.1191 6.73381 68.9592 12.8873 75.1127C19.0408 81.2662 26.8809 85.4568 35.416 87.1545C43.9512 88.8523 52.7981 87.9809 60.8381 84.6507C68.878 81.3204 75.7499 75.6808 80.5847 68.4451C85.4194 61.2093 88 52.7024 88 44C87.9877 32.3342 83.348 21.1498 75.0991 12.9009C66.8502 4.65197 55.6658 0.0123192 44 0ZM44 81.2308C36.6365 81.2308 29.4383 79.0472 23.3157 74.9562C17.1931 70.8653 12.4212 65.0506 9.60327 58.2476C6.78536 51.4446 6.04807 43.9587 7.48463 36.7366C8.92118 29.5146 12.4671 22.8807 17.6739 17.6739C22.8807 12.4671 29.5146 8.92117 36.7366 7.48461C43.9587 6.04805 51.4446 6.78534 58.2476 9.60325C65.0506 12.4212 70.8653 17.1931 74.9563 23.3157C79.0472 29.4383 81.2308 36.6364 81.2308 44C81.2196 53.8708 77.2935 63.3341 70.3138 70.3138C63.3341 77.2934 53.8708 81.2196 44 81.2308ZM23.6923 35.5385C23.6923 34.5343 23.9901 33.5528 24.5479 32.7179C25.1058 31.883 25.8987 31.2323 26.8264 30.848C27.7541 30.4637 28.7749 30.3632 29.7597 30.5591C30.7445 30.755 31.6492 31.2385 32.3592 31.9485C33.0692 32.6585 33.5527 33.5632 33.7486 34.548C33.9445 35.5328 33.844 36.5536 33.4597 37.4813C33.0755 38.409 32.4247 39.2019 31.5898 39.7598C30.7549 40.3176 29.7734 40.6154 28.7692 40.6154C27.4228 40.6154 26.1314 40.0805 25.1793 39.1284C24.2272 38.1763 23.6923 36.8849 23.6923 35.5385ZM64.3077 35.5385C64.3077 36.5426 64.0099 37.5241 63.4521 38.359C62.8942 39.1939 62.1013 39.8447 61.1736 40.2289C60.2459 40.6132 59.2251 40.7137 58.2403 40.5178C57.2555 40.3219 56.3509 39.8384 55.6409 39.1284C54.9308 38.4184 54.4473 37.5137 54.2514 36.5289C54.0555 35.5441 54.1561 34.5233 54.5403 33.5956C54.9246 32.6679 55.5753 31.875 56.4102 31.3171C57.2451 30.7593 58.2267 30.4615 59.2308 30.4615C60.5773 30.4615 61.8686 30.9964 62.8207 31.9485C63.7728 32.9006 64.3077 34.192 64.3077 35.5385ZM63.8508 62.6154C64.0957 63.0006 64.2601 63.4314 64.3342 63.8818C64.4083 64.3322 64.3905 64.793 64.2819 65.2364C64.1733 65.6797 63.9761 66.0966 63.7022 66.4618C63.4284 66.827 63.0835 67.133 62.6883 67.3614C62.2931 67.5899 61.8557 67.736 61.4026 67.7911C60.9494 67.8461 60.4898 67.8089 60.0514 67.6817C59.613 67.5545 59.2049 67.34 58.8515 67.051C58.4982 66.762 58.207 66.4045 57.9954 66C54.835 60.5381 49.8681 57.5384 44 57.5384C38.1319 57.5384 33.165 60.5423 30.0046 66C29.793 66.4045 29.5018 66.762 29.1485 67.051C28.7951 67.34 28.387 67.5545 27.9486 67.6817C27.5102 67.8089 27.0506 67.8461 26.5974 67.7911C26.1443 67.736 25.707 67.5899 25.3118 67.3614C24.9166 67.133 24.5716 66.827 24.2978 66.4618C24.0239 66.0966 23.8267 65.6797 23.7181 65.2364C23.6095 64.793 23.5917 64.3322 23.6658 63.8818C23.7399 63.4314 23.9044 63.0006 24.1492 62.6154C28.5027 55.0888 35.7373 50.7692 44 50.7692C52.2627 50.7692 59.4973 55.0846 63.8508 62.6154Z" fill="#F5F1ED"/>
</svg>
