<svg width="88" height="88" viewBox="0 0 88 88" fill="none" xmlns="http://www.w3.org/2000/svg">
<path d="M88 57.3375L86.7625 53.9C85.8 54.3125 84.7 53.7625 84.425 52.8C84.0125 51.8375 84.5625 50.7375 85.525 50.4625L84.15 46.75C83.1875 47.1625 82.0875 46.6125 81.8125 45.65C81.4 44.6875 81.95 43.5875 82.9125 43.3125L81.675 39.875C80.7125 40.2875 79.6125 39.7375 79.3375 38.775C78.925 37.8125 79.475 36.7125 80.4375 36.4375L79.2 33C78.2375 33.275 77.275 32.8625 76.8625 32.0375C73.15 32.45 69.4375 30.3875 68.2 26.675L16.775 45.1C18.2875 49.3625 16.0875 54.0375 11.825 55.6875L21.8625 83.05C26.125 81.5375 30.8 83.7375 32.45 88L83.7375 69.3C82.3625 65.5875 83.875 61.6 87.0375 59.5375C86.625 58.7125 87.0375 57.6125 88 57.3375Z" fill="#F5F1ED"/>
<path d="M77.825 64.2125L33.55 80.3C31.2125 81.125 28.6 79.8875 27.6375 77.55L19.8 55.9625C18.975 53.625 20.2125 51.0125 22.55 50.05L66.825 33.9625C69.1625 33.1375 71.775 34.375 72.7375 36.7125L80.575 58.3C81.4 60.775 80.1625 63.3875 77.825 64.2125ZM23.375 52.3875C22.1375 52.8 21.5875 54.175 22 55.275L29.8375 76.8625C30.25 78.1 31.625 78.65 32.725 78.2375L77 62.15C78.2375 61.7375 78.7875 60.3625 78.375 59.2625L70.5375 37.675C70.125 36.4375 68.75 35.8875 67.65 36.3L23.375 52.3875Z" fill="#FF9000"/>
<path d="M42.4875 59.2625L41.25 59.675C41.1125 59.675 40.975 59.675 40.975 59.5375L40.2875 58.1625L39.4625 58.4375L39.875 59.95C39.875 60.0875 39.875 60.225 39.7375 60.225L38.5 60.6375C38.3625 60.6375 38.3625 60.6375 38.225 60.5L35.8875 51.0125C35.8875 50.875 35.8875 50.7375 36.025 50.7375L37.8125 50.05C37.95 50.05 38.0875 50.05 38.0875 50.1875L42.4875 58.9875C42.625 59.125 42.625 59.2625 42.4875 59.2625ZM39.6 56.65L37.95 53.075H37.8125L38.9125 56.7875L39.6 56.65ZM45.1 51.0125L46.75 55.6875C47.025 56.65 46.6125 57.6125 45.65 58.025L43.5875 58.7125C43.45 58.7125 43.3125 58.7125 43.3125 58.575L40.5625 50.875C40.5625 50.7375 40.5625 50.6 40.7 50.6L42.7625 49.9125C43.725 49.6375 44.825 50.05 45.1 51.0125ZM43.5875 51.7C43.5875 51.5625 43.3125 51.425 43.175 51.425L42.625 51.5625L44.55 56.7875L44.9625 56.65C45.1 56.65 45.2375 56.375 45.1 56.2375L43.5875 51.7ZM50.875 47.1625L53.7625 54.8625C53.7625 55 53.7625 55.1375 53.625 55.1375L52.3875 55.55C52.25 55.55 52.1125 55.55 52.1125 55.4125L50.7375 51.8375L51.0125 55.4125C51.0125 55.55 50.875 55.55 50.875 55.4125L48.8125 52.525L50.1875 56.1C50.1875 56.2375 50.1875 56.375 50.05 56.375L48.8125 56.7875C48.675 56.7875 48.5375 56.7875 48.5375 56.65L45.65 48.95C45.65 48.8125 45.65 48.675 45.7875 48.675L46.8875 48.2625C47.025 48.2625 47.1625 48.2625 47.1625 48.4L49.775 52.25L49.3625 47.7125C49.3625 47.575 49.3625 47.4375 49.5 47.4375L50.6 47.025C50.7375 47.025 50.875 47.025 50.875 47.1625ZM56.5125 53.9C56.5125 54.0375 56.5125 54.175 56.375 54.175L55.1375 54.5875C55 54.5875 54.8625 54.5875 54.8625 54.45L52.1125 46.75C52.1125 46.6125 52.1125 46.475 52.25 46.475L53.4875 46.0625C53.625 46.0625 53.7625 46.0625 53.7625 46.2L56.5125 53.9ZM58.575 44.4125L58.9875 45.65C58.9875 45.7875 58.9875 45.925 58.85 45.925L57.8875 46.3375L60.225 52.6625C60.225 52.8 60.225 52.9375 60.0875 52.9375L58.85 53.35C58.7125 53.35 58.575 53.35 58.575 53.2125L56.375 46.75L55.4125 47.1625C55.275 47.1625 55.1375 47.1625 55.1375 47.025L54.725 45.7875C54.725 45.65 54.725 45.5125 54.8625 45.5125L58.3 44.275C58.4375 44.275 58.575 44.275 58.575 44.4125ZM49.0875 69.1625L48.5375 69.3C47.575 69.575 46.6125 69.1625 46.2 68.2L44 61.875C43.725 60.9125 44.1375 59.95 45.1 59.5375L45.65 59.4C46.6125 59.125 47.575 59.5375 47.9875 60.5L50.325 66.825C50.6 67.65 50.05 68.75 49.0875 69.1625ZM45.925 60.9125C45.65 61.05 45.5125 61.1875 45.65 61.4625L47.85 67.65C47.85 67.7875 48.125 67.925 48.2625 67.7875H48.4C48.5375 67.7875 48.675 67.5125 48.675 67.375L46.475 61.1875C46.3375 60.9125 46.0625 60.9125 45.925 60.9125ZM53.35 58.4375L56.2375 66.1375C56.2375 66.275 56.2375 66.4125 56.1 66.4125L55.275 66.6875C55.1375 66.6875 55 66.6875 55 66.55L52.25 63.525L53.4875 67.1C53.4875 67.2375 53.4875 67.375 53.35 67.375L52.1125 67.7875C51.975 67.7875 51.8375 67.7875 51.8375 67.65L48.95 59.95C48.95 59.8125 48.95 59.675 49.0875 59.675L50.05 59.4C50.1875 59.4 50.325 59.4 50.325 59.5375L53.2125 62.975L51.8375 58.9875C51.8375 58.85 51.8375 58.7125 51.975 58.7125L53.2125 58.3C53.2125 58.3 53.35 58.3 53.35 58.4375ZM60.225 63.3875L60.6375 64.625C60.6375 64.7625 60.6375 64.9 60.5 64.9L57.6125 66C57.475 66 57.3375 66 57.3375 65.8625L54.45 58.1625C54.45 58.025 54.45 57.8875 54.5875 57.8875L57.475 56.7875C57.6125 56.7875 57.75 56.7875 57.75 56.925L58.1625 58.1625C58.1625 58.3 58.1625 58.4375 58.025 58.4375L56.5125 58.9875L57.0625 60.5L58.4375 59.95C58.575 59.95 58.7125 59.95 58.7125 60.0875L59.125 61.325C59.125 61.4625 59.125 61.6 58.9875 61.6L57.6125 62.15L58.3 63.9375L59.8125 63.3875C60.0875 63.25 60.225 63.25 60.225 63.3875Z" fill="#FF9000"/>
<g opacity="0.5">
<path d="M34.925 75.35L76.725 40.2875C74.6625 37.8125 74.3875 34.65 75.4875 31.9C72.1875 31.7625 69.3 29.7 68.0625 26.5375L16.775 45.1C18.2875 49.3625 16.0875 54.0375 11.825 55.6875L14.9875 64.4875L23.2375 74.3875C26.8125 71.3625 31.9 71.9125 34.925 75.35Z" fill="#947151"/>
<path opacity="0.5" d="M34.925 75.35L76.725 40.2875C74.6625 37.8125 74.3875 34.65 75.4875 31.9C72.1875 31.7625 69.3 29.7 68.0625 26.5375L16.775 45.1C18.2875 49.3625 16.0875 54.0375 11.825 55.6875L14.9875 64.4875L23.2375 74.3875C26.8125 71.3625 31.9 71.9125 34.925 75.35Z" fill="#947151"/>
</g>
<path d="M72.1875 22.1375L69.85 19.25C69.025 19.9375 67.925 19.8 67.2375 18.975C66.55 18.15 66.6875 17.05 67.5125 16.3625L65.175 13.475C64.35 14.1625 63.25 14.025 62.5625 13.2C61.875 12.375 62.0125 11.275 62.8375 10.5875L60.5 7.7C59.675 8.3875 58.575 8.25 57.8875 7.425C56.925 6.875 57.0625 5.775 57.75 5.0875L55.4125 2.2C54.5875 2.8875 53.4875 2.75 52.8 2.0625C49.5 3.7125 45.375 3.025 42.7625 0L0.9625 35.0625C3.9875 38.6375 3.4375 43.8625 0 46.75L18.7 69.1625C22.1375 66.275 27.3625 66.6875 30.25 70.125L72.05 35.0625C69.575 32.0375 69.575 27.775 71.775 24.75C71.3625 23.925 71.5 22.825 72.1875 22.1375Z" fill="#F5F1ED"/>
<path d="M64.9 32.175L28.875 62.425C26.95 64.075 24.0625 63.8 22.4125 61.875L7.70003 44.275C6.05003 42.35 6.32503 39.4625 8.25003 37.8125L44.275 7.56249C46.2 5.91249 49.0875 6.18749 50.7375 8.11249L65.45 25.7125C67.1 27.6375 66.825 30.525 64.9 32.175ZM9.76253 39.6C8.80003 40.425 8.66253 41.8 9.48753 42.7625L24.2 60.5C25.025 61.4625 26.4 61.6 27.3625 60.775L63.3875 30.525C64.35 29.7 64.4875 28.325 63.6625 27.3625L48.95 9.62499C48.125 8.66249 46.75 8.52499 45.7875 9.34999L9.76253 39.6Z" fill="#FF9000"/>
<path d="M30.1125 39.6L29.15 40.425C29.0125 40.5625 28.875 40.425 28.875 40.425L27.775 39.325L26.95 39.875L27.9125 41.1125V41.3875L26.95 42.2125C26.8125 42.35 26.8125 42.2125 26.675 42.2125L21.3125 34.1V33.825L22.825 32.5875C22.9625 32.45 23.1 32.45 23.1 32.5875L30.1125 39.325V39.6ZM26.5375 38.0875L23.7875 35.2L23.65 35.3375L25.9875 38.5L26.5375 38.0875ZM29.7 30.9375L32.8625 34.7875C33.55 35.6125 33.4125 36.7125 32.5875 37.4L30.9375 38.775C30.8 38.9125 30.6625 38.775 30.6625 38.775L25.3 32.45C25.1625 32.3125 25.3 32.175 25.3 32.175L26.95 30.8C27.9125 30.1125 29.0125 30.1125 29.7 30.9375ZM28.4625 32.0375C28.325 31.9 28.05 31.9 27.9125 32.0375L27.5 32.3125L31.075 36.575L31.4875 36.3C31.625 36.1625 31.625 36.025 31.4875 35.75L28.4625 32.0375ZM33.825 25.3L39.1875 31.625C39.325 31.7625 39.1875 31.9 39.1875 31.9L38.0875 32.725C37.95 32.8625 37.8125 32.725 37.8125 32.725L35.3375 29.8375L36.85 33.1375C36.85 33.275 36.85 33.275 36.7125 33.275L33.825 31.2125L36.3 34.1C36.4375 34.2375 36.3 34.375 36.3 34.375L35.2 35.2C35.0625 35.3375 34.925 35.2 34.925 35.2L29.5625 28.875C29.425 28.7375 29.5625 28.6 29.5625 28.6L30.525 27.775C30.6625 27.6375 30.8 27.775 30.8 27.775L34.5125 30.3875L32.5875 26.2625V25.9875L33.55 25.1625C33.6875 25.3 33.825 25.3 33.825 25.3ZM41.525 29.7C41.6625 29.8375 41.525 29.975 41.525 29.975L40.5625 30.8C40.425 30.9375 40.2875 30.8 40.2875 30.8L34.925 24.475C34.7875 24.3375 34.925 24.2 34.925 24.2L35.8875 23.375C36.025 23.2375 36.1625 23.375 36.1625 23.375L41.525 29.7ZM40.15 20.075L40.975 21.0375C41.1125 21.175 40.975 21.3125 40.975 21.3125L40.15 22L44.55 27.225C44.6875 27.3625 44.55 27.5 44.55 27.5L43.5875 28.325H43.3125L38.9125 23.1L38.0875 23.7875C37.95 23.925 37.8125 23.7875 37.8125 23.7875L36.9875 22.825C36.85 22.6875 36.9875 22.55 36.9875 22.55L39.875 20.2125C39.875 20.075 40.0125 20.075 40.15 20.075ZM39.7375 46.6125L39.325 47.025C38.5 47.7125 37.4 47.575 36.7125 46.75L32.45 41.6625C31.7625 40.8375 31.9 39.7375 32.725 39.05L33.1375 38.6375C33.9625 37.95 35.0625 38.0875 35.75 38.9125L39.875 44C40.5625 44.825 40.425 45.925 39.7375 46.6125ZM33.825 40.0125C33.55 40.15 33.55 40.425 33.6875 40.5625L37.95 45.5125C38.0875 45.65 38.225 45.65 38.5 45.5125L38.6375 45.375C38.775 45.2375 38.775 44.9625 38.6375 44.825L34.375 40.0125C34.2375 39.875 33.9625 39.875 33.825 40.0125ZM40.0125 35.0625L45.375 41.3875C45.5125 41.525 45.375 41.6625 45.375 41.6625L44.6875 42.2125C44.55 42.35 44.4125 42.35 44.4125 42.2125L40.8375 40.2875L43.3125 43.175C43.45 43.3125 43.3125 43.45 43.3125 43.45L42.35 44.275C42.2125 44.4125 42.075 44.275 42.075 44.275L36.7125 37.95C36.575 37.8125 36.7125 37.675 36.7125 37.675L37.4 37.125C37.5375 36.9875 37.675 36.9875 37.675 37.125L41.525 39.325L38.775 36.1625C38.6375 36.025 38.775 35.8875 38.775 35.8875L39.7375 35.0625H40.0125ZM48.125 37.4L48.95 38.3625C49.0875 38.5 48.95 38.6375 48.95 38.6375L46.6125 40.7C46.475 40.8375 46.3375 40.7 46.3375 40.7L40.975 34.375C40.8375 34.2375 40.975 34.1 40.975 34.1L43.3125 32.0375C43.45 31.9 43.5875 32.0375 43.5875 32.0375L44.4125 33C44.55 33.1375 44.4125 33.275 44.4125 33.275L43.175 34.375L44.275 35.6125L45.375 34.65C45.5125 34.5125 45.65 34.65 45.65 34.65L46.475 35.6125C46.6125 35.75 46.475 35.8875 46.475 35.8875L45.375 36.85L46.6125 38.3625L47.85 37.2625C47.9875 37.2625 48.125 37.2625 48.125 37.4Z" fill="#FF9000"/>
</svg>
