<svg width="88" height="88" viewBox="0 0 88 88" fill="none" xmlns="http://www.w3.org/2000/svg">
<path d="M17.6 8.8C15.2661 8.8 13.0278 9.72714 11.3775 11.3775C9.72714 13.0278 8.8 15.2661 8.8 17.6V70.4C8.8 72.7339 9.72714 74.9722 11.3775 76.6225C13.0278 78.2729 15.2661 79.2 17.6 79.2H70.4C72.7339 79.2 74.9722 78.2729 76.6225 76.6225C78.2729 74.9722 79.2 72.7339 79.2 70.4V17.6C79.2 15.2661 78.2729 13.0278 76.6225 11.3775C74.9722 9.72714 72.7339 8.8 70.4 8.8H17.6ZM17.6 0H70.4C75.0678 0 79.5444 1.85428 82.8451 5.15492C86.1457 8.45556 88 12.9322 88 17.6V70.4C88 75.0678 86.1457 79.5444 82.8451 82.8451C79.5444 86.1457 75.0678 88 70.4 88H17.6C12.9322 88 8.45556 86.1457 5.15492 82.8451C1.85428 79.5444 0 75.0678 0 70.4V17.6C0 12.9322 1.85428 8.45556 5.15492 5.15492C8.45556 1.85428 12.9322 0 17.6 0Z" fill="#FF9000"/>
<path d="M48.6667 40.8L64.3333 24H60.3333L46.8667 38.4L36.3333 24H23L39.4 46.4L23 64H27L41.2 48.8L52.3333 64H65.6667L48.6667 40.8ZM28.9333 26.6667H34.2667L59.6667 61.3333H54.3333L28.9333 26.6667Z" fill="white"/>
</svg>
