<svg width="88" height="88" viewBox="0 0 88 88" fill="none" xmlns="http://www.w3.org/2000/svg">
<path d="M39.6121 87.8187C32.6411 87.0975 25.9431 84.7215 20.0758 80.8886C15.1367 77.671 14.0202 76.3455 14.0202 73.7054C14.0202 68.3979 19.8613 59.0972 29.855 48.4985C35.5256 42.4759 43.4347 35.4193 44.2872 35.6118C45.9483 35.9858 59.2365 48.9385 64.2086 55.0326C72.0737 64.6743 75.6928 72.5724 73.8557 76.0925C72.4587 78.7655 63.7906 83.9961 57.427 86.0037C52.1799 87.6592 45.2882 88.3632 39.6121 87.8187ZM7.34859 68.1833C3.24002 61.8912 1.16648 55.6981 0.165462 46.733C-0.164543 43.7684 -0.0435414 42.0799 0.918975 36.0078C2.118 28.4342 6.43007 19.6725 11.6167 14.2824C13.8222 11.9889 14.0202 11.9339 16.7097 12.8359C19.9823 13.9359 23.4749 16.345 28.8815 21.24L32.0385 24.0946L30.317 26.2121C22.3088 36.0408 13.8607 49.9725 10.6706 58.5912C8.93811 63.2773 8.2396 67.9798 8.98761 69.9379C9.48812 71.2579 9.02612 70.7629 7.33759 68.1833H7.34859ZM79.4053 69.2559C79.8123 67.2758 79.3008 63.6458 78.0963 59.9772C75.4948 52.0406 66.7936 37.2728 58.802 27.2351L56.2884 24.0726L59.0055 21.5756C62.5585 18.314 65.0281 16.3615 67.6956 14.7004C69.7912 13.3969 72.7942 12.2364 74.0812 12.2364C74.8788 12.2364 77.6783 15.1404 79.9388 18.3085C83.5317 23.4363 86.0448 29.2409 87.3255 35.3698C88.167 39.3739 88.2385 47.943 87.4575 51.9361C86.7242 55.5124 85.6181 59.002 84.1574 62.3478C83.1729 64.5093 80.7254 68.7059 79.6473 70.0699C79.0973 70.7739 79.0918 70.7684 79.4053 69.2559ZM40.3437 10.7349C36.6586 8.86483 30.9715 6.8573 27.8254 6.31829C26.4446 6.1071 25.0467 6.02791 23.6509 6.08178C21.0603 6.21379 21.1758 6.08179 25.3339 4.11275C28.5939 2.54856 32.0386 1.40279 35.5861 0.702693C39.9861 -0.226823 48.2693 -0.232323 52.6034 0.675192C57.2785 1.66521 62.795 3.71124 65.9026 5.62528L66.8266 6.19179L64.7091 6.08178C60.496 5.87278 54.3689 7.56681 47.7798 10.7734C45.7943 11.7414 44.0617 12.5114 43.9352 12.4894C42.7187 11.941 41.5247 11.3559 40.3437 10.7349Z" fill="#FF9000"/>
</svg>
